<svg width="497" height="225" xmlns="http://www.w3.org/2000/svg" xmlns:xlink="http://www.w3.org/1999/xlink" overflow="hidden"><defs><clipPath id="clip0"><rect x="369" y="263" width="497" height="225"/></clipPath><clipPath id="clip1"><rect x="369" y="274" width="172" height="172"/></clipPath><clipPath id="clip2"><rect x="369" y="274" width="172" height="172"/></clipPath><clipPath id="clip3"><rect x="369" y="274" width="172" height="172"/></clipPath><clipPath id="clip4"><rect x="409" y="280" width="106" height="105"/></clipPath><clipPath id="clip5"><rect x="409" y="280" width="106" height="105"/></clipPath><clipPath id="clip6"><rect x="409" y="280" width="106" height="105"/></clipPath><clipPath id="clip7"><rect x="428" y="299" width="38" height="37"/></clipPath><clipPath id="clip8"><rect x="428" y="299" width="38" height="37"/></clipPath><clipPath id="clip9"><rect x="428" y="299" width="38" height="37"/></clipPath><clipPath id="clip10"><rect x="455" y="293" width="38" height="37"/></clipPath><clipPath id="clip11"><rect x="455" y="293" width="38" height="37"/></clipPath><clipPath id="clip12"><rect x="455" y="293" width="38" height="37"/></clipPath><clipPath id="clip13"><rect x="462" y="323" width="34" height="34"/></clipPath><clipPath id="clip14"><rect x="462" y="323" width="34" height="34"/></clipPath><clipPath id="clip15"><rect x="462" y="323" width="34" height="34"/></clipPath><clipPath id="clip16"><rect x="432" y="334" width="27" height="27"/></clipPath><clipPath id="clip17"><rect x="432" y="334" width="27" height="27"/></clipPath><clipPath id="clip18"><rect x="432" y="334" width="27" height="27"/></clipPath></defs><g clip-path="url(#clip0)" transform="translate(-369 -263)"><text fill="#282829" font-family="Berlin Sans FB,Berlin Sans FB_MSFontService,sans-serif" font-weight="400" font-size="107" transform="translate(525.741 399)">IDiNA</text><g clip-path="url(#clip1)"><g clip-path="url(#clip2)"><g clip-path="url(#clip3)"><path d="M84.3875 35.2958C80.2667 35.2958 76.8625 38.7 76.8625 42.8208 76.8625 46.9417 80.2667 50.3458 84.3875 50.3458 88.5083 50.3458 91.9125 46.9417 91.9125 42.8208 91.9125 38.7 88.5083 35.2958 84.3875 35.2958Z" fill="#3C3D3E" transform="matrix(-1 0 0 1 541 274)"/><path d="M69.3375 79.1917C69.3375 83.3476 65.9684 86.7167 61.8125 86.7167 57.6566 86.7167 54.2875 83.3476 54.2875 79.1917 54.2875 75.0357 57.6566 71.6667 61.8125 71.6667 65.9684 71.6667 69.3375 75.0357 69.3375 79.1917Z" fill="#3C3D3E" transform="matrix(-1 0 0 1 541 274)"/><path d="M105.708 45.3292 101.229 47.4792C100.871 48.9125 100.154 50.1667 99.4375 51.4208L101.05 56.0792 97.4667 59.6625 92.8083 58.05C91.5542 58.7667 90.3 59.3042 88.8667 59.6625L86.7167 63.9625 81.7 63.9625 79.55 59.4833C78.1167 59.125 76.8625 58.5875 75.6083 57.8708L70.95 59.4833 67.3667 55.9 68.9792 51.2417C68.2625 49.9875 67.725 48.7333 67.3667 47.3L62.8875 45.15 62.8875 40.1333 67.3667 37.9833C67.725 36.55 68.2625 35.2958 68.9792 34.0417L67.5458 29.3833 71.1292 25.8 75.7875 27.4125C77.0417 26.6958 78.2958 26.1583 79.7292 25.8L81.8792 21.3208 86.8958 21.3208 89.0458 25.6208C90.4792 25.9792 91.7333 26.5167 92.9875 27.2333L97.6458 25.6208 101.229 29.2042 99.6167 33.8625C100.333 35.1167 100.871 36.3708 101.229 37.8042L105.708 39.9542 105.708 45.3292ZM83.1333 81.7 78.6542 83.85C78.2958 85.2833 77.7583 86.5375 77.0417 87.7917L78.475 92.45 74.8917 96.0333 70.2333 94.4208C68.9792 95.1375 67.725 95.675 66.2917 96.0333L64.3208 100.333 59.3042 100.333 57.1542 95.8542C55.7208 95.4958 54.4667 94.9583 53.2125 94.2417L48.5542 95.675 44.9708 92.0917 46.5833 87.4333C45.8667 86.1792 45.3292 84.925 44.9708 83.4917L40.4917 81.3417 40.4917 76.325 44.9708 74.175C45.3292 72.7417 45.8667 71.4875 46.5833 70.2333L44.9708 65.575 48.5542 61.9917 53.2125 63.6042C54.4667 62.8875 55.7208 62.35 57.1542 61.9917L59.3042 57.5125 64.5 57.5125 66.65 61.9917C68.0833 62.35 69.3375 62.8875 70.5917 63.6042L75.25 61.9917 78.8333 65.575 77.2208 70.2333C77.9375 71.4875 78.475 72.7417 78.8333 74.175L83.3125 76.325 83.1333 81.7 83.1333 81.7ZM145.125 88.3292 132.762 66.8292 132.762 65.9333C133.479 46.225 123.446 27.7708 106.425 17.5583 89.4042 7.525 68.4417 7.525 51.4208 17.5583 34.4 27.5917 24.3667 46.225 25.0833 65.9333 25.0833 82.9542 32.7875 98.9 46.225 109.292L46.225 154.621 102.842 154.621 102.842 133.121 111.621 133.121C117.354 133.121 122.729 130.792 126.671 126.85 130.613 122.729 132.762 117.354 132.762 111.621L132.762 100.871 140.646 100.871C145.304 100.333 149.425 94.9583 145.125 88.3292Z" fill="#3C3D3E" transform="matrix(-1 0 0 1 541 274)"/></g></g></g><path d="M424 337C424 311.043 442.804 290 466 290 489.196 290 508 311.043 508 337 508 362.957 489.196 384 466 384 442.804 384 424 362.957 424 337Z" fill="#3C3D3E" fill-rule="evenodd"/><g clip-path="url(#clip4)"><g clip-path="url(#clip5)"><g clip-path="url(#clip6)"><path d="M54.6875 75.6875 54.6875 81.4844 50.3125 81.4844 50.3125 75.6875C47.7969 74.8125 45.9375 72.4062 45.9375 69.4531 45.9375 65.8438 48.8906 62.8906 52.5 62.8906 56.1094 62.8906 59.0625 65.8438 59.0625 69.4531 59.0625 72.2969 57.2031 74.7031 54.6875 75.6875ZM36.0938 35.5469C36.0938 26.4688 43.4219 19.1406 52.5 19.1406 61.5781 19.1406 68.9062 26.4688 68.9062 35.5469L68.9062 47.6875 52.5 46.4844 36.0938 47.6875 36.0938 35.5469ZM75.4688 48.125 75.4688 35.5469C75.4688 22.8594 65.1875 12.5781 52.5 12.5781 39.8125 12.5781 29.5312 22.8594 29.5312 35.5469L29.5312 48.125 21.875 48.6719 21.875 90.2344 52.5 92.4219 83.125 90.2344 83.125 48.6719 75.4688 48.125Z" fill="#DCDCDD" transform="matrix(1.00952 0 0 1 409 280)"/></g></g></g><g clip-path="url(#clip7)"><g clip-path="url(#clip8)"><g clip-path="url(#clip9)"><path d="M18.5 23.125C15.9563 23.125 13.875 21.0437 13.875 18.5 13.875 15.9563 15.9563 13.875 18.5 13.875 21.0437 13.875 23.125 15.9563 23.125 18.5 23.125 21.0437 21.0437 23.125 18.5 23.125ZM28.9062 15.6094C28.675 14.7615 28.3281 13.9521 27.9042 13.2198L28.8677 10.3292 26.6708 8.13229 23.7802 9.09583C23.0094 8.67188 22.2 8.325 21.3521 8.09375L20.0417 5.39583 16.9583 5.39583 15.6094 8.09375C14.7615 8.325 13.9521 8.67188 13.2198 9.09583L10.3292 8.13229 8.13229 10.3292 9.09583 13.2198C8.67188 13.9906 8.325 14.8 8.09375 15.6479L5.39583 16.9583 5.39583 20.0417 8.09375 21.3906C8.325 22.2385 8.67188 23.0479 9.09583 23.7802L8.13229 26.6708 10.3292 28.8677 13.2198 27.9042C13.9906 28.3281 14.8 28.675 15.6479 28.9062L16.9969 31.6042 20.0802 31.6042 21.4292 28.9062C22.2771 28.675 23.0865 28.3281 23.8187 27.9042L26.7094 28.8677 28.9062 26.6708 27.9427 23.7802C28.3667 23.0094 28.7135 22.2 28.9448 21.3521L31.6427 20.0031 31.6427 16.9198 28.9062 15.6094Z" stroke="#465B28" fill="#EAF5D3" transform="matrix(1.02703 0 0 1 428 299)"/></g></g></g><g clip-path="url(#clip10)"><g clip-path="url(#clip11)"><g clip-path="url(#clip12)"><path d="M18.5 23.125C15.9563 23.125 13.875 21.0437 13.875 18.5 13.875 15.9563 15.9563 13.875 18.5 13.875 21.0437 13.875 23.125 15.9563 23.125 18.5 23.125 21.0437 21.0437 23.125 18.5 23.125ZM28.9062 15.6094C28.675 14.7615 28.3281 13.9521 27.9042 13.2198L28.8677 10.3292 26.6708 8.13229 23.7802 9.09583C23.0094 8.67188 22.2 8.325 21.3521 8.09375L20.0417 5.39583 16.9583 5.39583 15.6094 8.09375C14.7615 8.325 13.9521 8.67188 13.2198 9.09583L10.3292 8.13229 8.13229 10.3292 9.09583 13.2198C8.67188 13.9906 8.325 14.8 8.09375 15.6479L5.39583 16.9583 5.39583 20.0417 8.09375 21.3906C8.325 22.2385 8.67188 23.0479 9.09583 23.7802L8.13229 26.6708 10.3292 28.8677 13.2198 27.9042C13.9906 28.3281 14.8 28.675 15.6479 28.9062L16.9969 31.6042 20.0802 31.6042 21.4292 28.9062C22.2771 28.675 23.0865 28.3281 23.8187 27.9042L26.7094 28.8677 28.9062 26.6708 27.9427 23.7802C28.3667 23.0094 28.7135 22.2 28.9448 21.3521L31.6427 20.0031 31.6427 16.9198 28.9062 15.6094Z" stroke="#465B28" fill="#5E7935" transform="matrix(1.02703 0 0 1 455 293)"/></g></g></g><g clip-path="url(#clip13)"><g clip-path="url(#clip14)"><g clip-path="url(#clip15)"><path d="M481.596 336.873 481.897 335.98 481.217 335.3 480.325 335.601C480.093 335.471 479.845 335.369 479.588 335.3L479.17 334.468 478.221 334.468 477.799 335.304C477.541 335.374 477.293 335.475 477.059 335.605L476.167 335.304 475.487 335.984 475.77 336.876C475.634 337.107 475.529 337.355 475.458 337.613L474.622 338.031 474.622 338.966 475.458 339.387C475.527 339.645 475.628 339.892 475.759 340.124L475.458 341.016 476.167 341.696 477.059 341.392C477.291 341.524 477.538 341.626 477.796 341.696L478.214 342.529 479.163 342.529 479.584 341.711C479.837 341.642 480.081 341.543 480.31 341.417L481.199 341.721 481.879 341.038 481.578 340.149C481.714 339.915 481.822 339.667 481.901 339.409L482.733 338.991 482.733 338.031 481.897 337.609C481.829 337.352 481.728 337.104 481.596 336.873ZM478.692 339.929C477.909 339.929 477.275 339.295 477.275 338.513 477.275 337.73 477.909 337.096 478.692 337.096 479.47 337.107 480.097 337.735 480.109 338.513 480.109 339.295 479.474 339.929 478.692 339.929Z" fill="#282829"/><path d="M481.734 349.488 475.639 349.488C475.075 349.521 474.644 350.006 474.677 350.57 474.708 351.088 475.121 351.501 475.639 351.532L481.734 351.532C482.298 351.498 482.729 351.014 482.696 350.45 482.665 349.932 482.252 349.519 481.734 349.488Z" fill="#282829"/><path d="M478.688 354.992C479.845 354.99 480.806 354.101 480.898 352.948L476.475 352.948C476.569 354.102 477.531 354.99 478.688 354.992Z" fill="#282829"/><path d="M487.532 338.75 487.532 338.445C487.442 333.611 483.513 329.731 478.678 329.701L478.678 329.701C473.843 329.731 469.914 333.611 469.824 338.445L469.824 338.75C469.856 339.798 470.064 340.834 470.44 341.813 470.798 342.737 471.319 343.59 471.977 344.331 472.788 345.213 473.673 346.931 474.049 347.696 474.164 347.927 474.4 348.073 474.658 348.071L482.698 348.071C482.956 348.073 483.192 347.927 483.307 347.696 483.682 346.931 484.568 345.217 485.379 344.331 486.037 343.59 486.557 342.737 486.916 341.813 487.291 340.834 487.5 339.798 487.532 338.75ZM485.492 338.718C485.467 339.532 485.308 340.336 485.021 341.098 484.752 341.784 484.363 342.417 483.873 342.968 483.087 343.904 482.413 344.928 481.865 346.021L475.49 346.021C474.948 344.926 474.28 343.897 473.5 342.957 473.01 342.407 472.621 341.774 472.352 341.087 472.06 340.326 471.894 339.522 471.864 338.707L471.864 338.452C471.927 334.734 474.948 331.746 478.667 331.723L478.667 331.723C482.386 331.746 485.407 334.734 485.471 338.452Z" fill="#282829"/><path d="M478.756 328.312C479.147 328.312 479.464 327.995 479.464 327.604L479.464 325.125C479.464 324.734 479.147 324.417 478.756 324.417 478.364 324.417 478.047 324.734 478.047 325.125L478.047 327.604C478.047 327.995 478.364 328.312 478.756 328.312Z" fill="#282829"/><path d="M470.351 331.426C470.628 331.7 471.074 331.7 471.35 331.426 471.625 331.149 471.625 330.703 471.35 330.427L469.597 328.667C469.307 328.405 468.859 328.427 468.596 328.718 468.352 328.988 468.353 329.399 468.598 329.669Z" fill="#282829"/><path d="M486.671 331.769C486.86 331.769 487.041 331.694 487.174 331.56L488.924 329.789C489.152 329.472 489.079 329.029 488.762 328.801 488.511 328.621 488.172 328.624 487.925 328.808L486.154 330.579C485.88 330.855 485.88 331.302 486.154 331.578 486.294 331.709 486.48 331.778 486.671 331.769Z" fill="#282829"/><path d="M467.755 337.698 465.276 337.698C464.885 337.698 464.568 338.015 464.568 338.406 464.568 338.797 464.885 339.115 465.276 339.115L467.755 339.115C468.146 339.115 468.464 338.797 468.464 338.406 468.464 338.015 468.146 337.698 467.755 337.698Z" fill="#282829"/><path d="M470.351 345.362 468.598 347.133C468.301 347.387 468.266 347.835 468.521 348.132 468.775 348.429 469.222 348.463 469.52 348.209 469.547 348.185 469.573 348.159 469.597 348.132L471.35 346.361C471.604 346.064 471.57 345.617 471.273 345.362 471.008 345.135 470.616 345.135 470.351 345.362Z" fill="#282829"/><path d="M487.174 345.228C486.912 344.937 486.464 344.914 486.174 345.176 485.883 345.439 485.861 345.887 486.123 346.177 486.138 346.194 486.155 346.211 486.172 346.226L487.943 347.997C488.193 348.298 488.64 348.338 488.94 348.088 489.241 347.838 489.282 347.391 489.031 347.09 488.997 347.05 488.959 347.013 488.917 346.981Z" fill="#282829"/><path d="M492.104 337.673 489.625 337.673C489.234 337.673 488.917 337.99 488.917 338.381 488.917 338.773 489.234 339.09 489.625 339.09L492.104 339.09C492.495 339.09 492.812 338.773 492.812 338.381 492.812 337.99 492.495 337.673 492.104 337.673Z" fill="#282829"/></g></g></g><g clip-path="url(#clip16)"><g clip-path="url(#clip17)"><g clip-path="url(#clip18)"><path d="M452.708 355.263C451.288 356.233 449.611 356.762 447.891 356.781 443.787 356.781 441.818 353.536 441.211 350.031L449.156 350.031 449.156 348.344 441.017 348.344C441 348.062 441 347.781 441 347.5 441 347.219 441 346.938 441.022 346.656L449.156 346.656 449.156 344.969 441.211 344.969C441.818 341.464 443.787 338.219 447.891 338.219 449.611 338.239 451.287 338.768 452.708 339.737L453.634 338.331C451.938 337.179 449.941 336.552 447.891 336.531 443.455 336.531 440.28 339.836 439.504 344.969L437.344 344.969 437.344 346.656 439.341 346.656C439.327 346.938 439.318 347.219 439.318 347.5 439.318 347.781 439.318 348.062 439.341 348.344L437.344 348.344 437.344 350.031 439.504 350.031C440.28 355.164 443.441 358.469 447.891 358.469 449.941 358.446 451.939 357.818 453.634 356.663Z" fill="#282829"/></g></g></g></g></svg>