<?xml version="1.0" encoding="utf-8" standalone="no"?>
<!DOCTYPE svg PUBLIC "-//W3C//DTD SVG 1.1//EN"
  "http://www.w3.org/Graphics/SVG/1.1/DTD/svg11.dtd">
<svg xmlns:xlink="http://www.w3.org/1999/xlink" width="1008pt" height="360pt" viewBox="0 0 1008 360" xmlns="http://www.w3.org/2000/svg" version="1.1">
 <metadata>
  <rdf:RDF xmlns:dc="http://purl.org/dc/elements/1.1/" xmlns:cc="http://creativecommons.org/ns#" xmlns:rdf="http://www.w3.org/1999/02/22-rdf-syntax-ns#">
   <cc:Work>
    <dc:type rdf:resource="http://purl.org/dc/dcmitype/StillImage"/>
    <dc:date>2024-10-21T14:17:06.165797</dc:date>
    <dc:format>image/svg+xml</dc:format>
    <dc:creator>
     <cc:Agent>
      <dc:title>Matplotlib v3.8.0, https://matplotlib.org/</dc:title>
     </cc:Agent>
    </dc:creator>
   </cc:Work>
  </rdf:RDF>
 </metadata>
 <defs>
  <style type="text/css">*{stroke-linejoin: round; stroke-linecap: butt}</style>
 </defs>
 <g id="figure_1">
  <g id="patch_1">
   <path d="M 0 360 
L 1008 360 
L 1008 0 
L 0 0 
z
" style="fill: #ffffff"/>
  </g>
  <g id="axes_1">
   <g id="patch_2">
    <path d="M 126 320.4 
L 481.090909 320.4 
L 481.090909 43.2 
L 126 43.2 
z
" style="fill: #eaeaf2"/>
   </g>
   <g id="matplotlib.axis_1">
    <g id="xtick_1">
     <g id="line2d_1">
      <path d="M 138.742497 320.4 
L 138.742497 43.2 
" clip-path="url(#p8e9f5e5f84)" style="fill: none; stroke: #ffffff; stroke-linecap: round"/>
     </g>
     <g id="text_1">
      <!-- 0 -->
      <g style="fill: #262626" transform="translate(135.442497 339.06575) scale(0.132 -0.132)">
       <defs>
        <path id="TimesNewRomanPSMT-30" d="M 231 2094 
Q 231 2819 450 3342 
Q 669 3866 1031 4122 
Q 1313 4325 1613 4325 
Q 2100 4325 2488 3828 
Q 2972 3213 2972 2159 
Q 2972 1422 2759 906 
Q 2547 391 2217 158 
Q 1888 -75 1581 -75 
Q 975 -75 572 641 
Q 231 1244 231 2094 
z
M 844 2016 
Q 844 1141 1059 588 
Q 1238 122 1591 122 
Q 1759 122 1940 273 
Q 2122 425 2216 781 
Q 2359 1319 2359 2297 
Q 2359 3022 2209 3506 
Q 2097 3866 1919 4016 
Q 1791 4119 1609 4119 
Q 1397 4119 1231 3928 
Q 1006 3669 925 3112 
Q 844 2556 844 2016 
z
" transform="scale(0.015625)"/>
       </defs>
       <use xlink:href="#TimesNewRomanPSMT-30"/>
      </g>
     </g>
    </g>
    <g id="xtick_2">
     <g id="line2d_2">
      <path d="M 206.702479 320.4 
L 206.702479 43.2 
" clip-path="url(#p8e9f5e5f84)" style="fill: none; stroke: #ffffff; stroke-linecap: round"/>
     </g>
     <g id="text_2">
      <!-- 20 -->
      <g style="fill: #262626" transform="translate(200.102479 339.06575) scale(0.132 -0.132)">
       <defs>
        <path id="TimesNewRomanPSMT-32" d="M 2934 816 
L 2638 0 
L 138 0 
L 138 116 
Q 1241 1122 1691 1759 
Q 2141 2397 2141 2925 
Q 2141 3328 1894 3587 
Q 1647 3847 1303 3847 
Q 991 3847 742 3664 
Q 494 3481 375 3128 
L 259 3128 
Q 338 3706 661 4015 
Q 984 4325 1469 4325 
Q 1984 4325 2329 3994 
Q 2675 3663 2675 3213 
Q 2675 2891 2525 2569 
Q 2294 2063 1775 1497 
Q 997 647 803 472 
L 1909 472 
Q 2247 472 2383 497 
Q 2519 522 2628 598 
Q 2738 675 2819 816 
L 2934 816 
z
" transform="scale(0.015625)"/>
       </defs>
       <use xlink:href="#TimesNewRomanPSMT-32"/>
       <use xlink:href="#TimesNewRomanPSMT-30" x="50"/>
      </g>
     </g>
    </g>
    <g id="xtick_3">
     <g id="line2d_3">
      <path d="M 274.662462 320.4 
L 274.662462 43.2 
" clip-path="url(#p8e9f5e5f84)" style="fill: none; stroke: #ffffff; stroke-linecap: round"/>
     </g>
     <g id="text_3">
      <!-- 40 -->
      <g style="fill: #262626" transform="translate(268.062462 339.06575) scale(0.132 -0.132)">
       <defs>
        <path id="TimesNewRomanPSMT-34" d="M 2978 1563 
L 2978 1119 
L 2409 1119 
L 2409 0 
L 1894 0 
L 1894 1119 
L 100 1119 
L 100 1519 
L 2066 4325 
L 2409 4325 
L 2409 1563 
L 2978 1563 
z
M 1894 1563 
L 1894 3666 
L 406 1563 
L 1894 1563 
z
" transform="scale(0.015625)"/>
       </defs>
       <use xlink:href="#TimesNewRomanPSMT-34"/>
       <use xlink:href="#TimesNewRomanPSMT-30" x="50"/>
      </g>
     </g>
    </g>
    <g id="xtick_4">
     <g id="line2d_4">
      <path d="M 342.622445 320.4 
L 342.622445 43.2 
" clip-path="url(#p8e9f5e5f84)" style="fill: none; stroke: #ffffff; stroke-linecap: round"/>
     </g>
     <g id="text_4">
      <!-- 60 -->
      <g style="fill: #262626" transform="translate(336.022445 339.06575) scale(0.132 -0.132)">
       <defs>
        <path id="TimesNewRomanPSMT-36" d="M 2869 4325 
L 2869 4209 
Q 2456 4169 2195 4045 
Q 1934 3922 1679 3669 
Q 1425 3416 1258 3105 
Q 1091 2794 978 2366 
Q 1428 2675 1881 2675 
Q 2316 2675 2634 2325 
Q 2953 1975 2953 1425 
Q 2953 894 2631 456 
Q 2244 -75 1606 -75 
Q 1172 -75 869 213 
Q 275 772 275 1663 
Q 275 2231 503 2743 
Q 731 3256 1154 3653 
Q 1578 4050 1965 4187 
Q 2353 4325 2688 4325 
L 2869 4325 
z
M 925 2138 
Q 869 1716 869 1456 
Q 869 1156 980 804 
Q 1091 453 1309 247 
Q 1469 100 1697 100 
Q 1969 100 2183 356 
Q 2397 613 2397 1088 
Q 2397 1622 2184 2012 
Q 1972 2403 1581 2403 
Q 1463 2403 1327 2353 
Q 1191 2303 925 2138 
z
" transform="scale(0.015625)"/>
       </defs>
       <use xlink:href="#TimesNewRomanPSMT-36"/>
       <use xlink:href="#TimesNewRomanPSMT-30" x="50"/>
      </g>
     </g>
    </g>
    <g id="xtick_5">
     <g id="line2d_5">
      <path d="M 410.582427 320.4 
L 410.582427 43.2 
" clip-path="url(#p8e9f5e5f84)" style="fill: none; stroke: #ffffff; stroke-linecap: round"/>
     </g>
     <g id="text_5">
      <!-- 80 -->
      <g style="fill: #262626" transform="translate(403.982427 339.06575) scale(0.132 -0.132)">
       <defs>
        <path id="TimesNewRomanPSMT-38" d="M 1228 2134 
Q 725 2547 579 2797 
Q 434 3047 434 3316 
Q 434 3728 753 4026 
Q 1072 4325 1600 4325 
Q 2113 4325 2425 4047 
Q 2738 3769 2738 3413 
Q 2738 3175 2569 2928 
Q 2400 2681 1866 2347 
Q 2416 1922 2594 1678 
Q 2831 1359 2831 1006 
Q 2831 559 2490 242 
Q 2150 -75 1597 -75 
Q 994 -75 656 303 
Q 388 606 388 966 
Q 388 1247 577 1523 
Q 766 1800 1228 2134 
z
M 1719 2469 
Q 2094 2806 2194 3001 
Q 2294 3197 2294 3444 
Q 2294 3772 2109 3958 
Q 1925 4144 1606 4144 
Q 1288 4144 1088 3959 
Q 888 3775 888 3528 
Q 888 3366 970 3203 
Q 1053 3041 1206 2894 
L 1719 2469 
z
M 1375 2016 
Q 1116 1797 991 1539 
Q 866 1281 866 981 
Q 866 578 1086 336 
Q 1306 94 1647 94 
Q 1984 94 2187 284 
Q 2391 475 2391 747 
Q 2391 972 2272 1150 
Q 2050 1481 1375 2016 
z
" transform="scale(0.015625)"/>
       </defs>
       <use xlink:href="#TimesNewRomanPSMT-38"/>
       <use xlink:href="#TimesNewRomanPSMT-30" x="50"/>
      </g>
     </g>
    </g>
    <g id="xtick_6">
     <g id="line2d_6">
      <path d="M 478.54241 320.4 
L 478.54241 43.2 
" clip-path="url(#p8e9f5e5f84)" style="fill: none; stroke: #ffffff; stroke-linecap: round"/>
     </g>
     <g id="text_6">
      <!-- 100 -->
      <g style="fill: #262626" transform="translate(468.64241 339.06575) scale(0.132 -0.132)">
       <defs>
        <path id="TimesNewRomanPSMT-31" d="M 750 3822 
L 1781 4325 
L 1884 4325 
L 1884 747 
Q 1884 391 1914 303 
Q 1944 216 2037 169 
Q 2131 122 2419 116 
L 2419 0 
L 825 0 
L 825 116 
Q 1125 122 1212 167 
Q 1300 213 1334 289 
Q 1369 366 1369 747 
L 1369 3034 
Q 1369 3497 1338 3628 
Q 1316 3728 1258 3775 
Q 1200 3822 1119 3822 
Q 1003 3822 797 3725 
L 750 3822 
z
" transform="scale(0.015625)"/>
       </defs>
       <use xlink:href="#TimesNewRomanPSMT-31"/>
       <use xlink:href="#TimesNewRomanPSMT-30" x="50"/>
       <use xlink:href="#TimesNewRomanPSMT-30" x="100"/>
      </g>
     </g>
    </g>
    <g id="text_7">
     <!-- Zeit im 15 min Intervall -->
     <g style="fill: #262626" transform="translate(245.892955 354.221812) scale(0.12 -0.12)">
      <defs>
       <path id="TimesNewRomanPSMT-5a" d="M 3681 4238 
L 897 256 
L 2634 256 
Q 3034 256 3248 431 
Q 3463 606 3628 1141 
L 3731 1122 
L 3531 0 
L 81 0 
L 81 116 
L 2800 3984 
L 1444 3984 
Q 1106 3984 954 3911 
Q 803 3838 723 3698 
Q 644 3559 578 3178 
L 459 3178 
L 547 4238 
L 3681 4238 
z
" transform="scale(0.015625)"/>
       <path id="TimesNewRomanPSMT-65" d="M 681 1784 
Q 678 1147 991 784 
Q 1303 422 1725 422 
Q 2006 422 2214 576 
Q 2422 731 2563 1106 
L 2659 1044 
Q 2594 616 2278 264 
Q 1963 -88 1488 -88 
Q 972 -88 605 314 
Q 238 716 238 1394 
Q 238 2128 614 2539 
Q 991 2950 1559 2950 
Q 2041 2950 2350 2633 
Q 2659 2316 2659 1784 
L 681 1784 
z
M 681 1966 
L 2006 1966 
Q 1991 2241 1941 2353 
Q 1863 2528 1708 2628 
Q 1553 2728 1384 2728 
Q 1125 2728 920 2526 
Q 716 2325 681 1966 
z
" transform="scale(0.015625)"/>
       <path id="TimesNewRomanPSMT-69" d="M 928 4444 
Q 1059 4444 1151 4351 
Q 1244 4259 1244 4128 
Q 1244 3997 1151 3903 
Q 1059 3809 928 3809 
Q 797 3809 703 3903 
Q 609 3997 609 4128 
Q 609 4259 701 4351 
Q 794 4444 928 4444 
z
M 1188 2947 
L 1188 647 
Q 1188 378 1227 289 
Q 1266 200 1342 156 
Q 1419 113 1622 113 
L 1622 0 
L 231 0 
L 231 113 
Q 441 113 512 153 
Q 584 194 626 287 
Q 669 381 669 647 
L 669 1750 
Q 669 2216 641 2353 
Q 619 2453 572 2492 
Q 525 2531 444 2531 
Q 356 2531 231 2484 
L 188 2597 
L 1050 2947 
L 1188 2947 
z
" transform="scale(0.015625)"/>
       <path id="TimesNewRomanPSMT-74" d="M 1031 3803 
L 1031 2863 
L 1700 2863 
L 1700 2644 
L 1031 2644 
L 1031 788 
Q 1031 509 1111 412 
Q 1191 316 1316 316 
Q 1419 316 1516 380 
Q 1613 444 1666 569 
L 1788 569 
Q 1678 263 1478 108 
Q 1278 -47 1066 -47 
Q 922 -47 784 33 
Q 647 113 581 261 
Q 516 409 516 719 
L 516 2644 
L 63 2644 
L 63 2747 
Q 234 2816 414 2980 
Q 594 3144 734 3369 
Q 806 3488 934 3803 
L 1031 3803 
z
" transform="scale(0.015625)"/>
       <path id="TimesNewRomanPSMT-20" transform="scale(0.015625)"/>
       <path id="TimesNewRomanPSMT-6d" d="M 1050 2338 
Q 1363 2650 1419 2697 
Q 1559 2816 1721 2881 
Q 1884 2947 2044 2947 
Q 2313 2947 2506 2790 
Q 2700 2634 2766 2338 
Q 3088 2713 3309 2830 
Q 3531 2947 3766 2947 
Q 3994 2947 4170 2830 
Q 4347 2713 4450 2447 
Q 4519 2266 4519 1878 
L 4519 647 
Q 4519 378 4559 278 
Q 4591 209 4675 161 
Q 4759 113 4950 113 
L 4950 0 
L 3538 0 
L 3538 113 
L 3597 113 
Q 3781 113 3884 184 
Q 3956 234 3988 344 
Q 4000 397 4000 647 
L 4000 1878 
Q 4000 2228 3916 2372 
Q 3794 2572 3525 2572 
Q 3359 2572 3192 2489 
Q 3025 2406 2788 2181 
L 2781 2147 
L 2788 2013 
L 2788 647 
Q 2788 353 2820 281 
Q 2853 209 2943 161 
Q 3034 113 3253 113 
L 3253 0 
L 1806 0 
L 1806 113 
Q 2044 113 2133 169 
Q 2222 225 2256 338 
Q 2272 391 2272 647 
L 2272 1878 
Q 2272 2228 2169 2381 
Q 2031 2581 1784 2581 
Q 1616 2581 1450 2491 
Q 1191 2353 1050 2181 
L 1050 647 
Q 1050 366 1089 281 
Q 1128 197 1204 155 
Q 1281 113 1516 113 
L 1516 0 
L 100 0 
L 100 113 
Q 297 113 375 155 
Q 453 197 493 289 
Q 534 381 534 647 
L 534 1741 
Q 534 2213 506 2350 
Q 484 2453 437 2492 
Q 391 2531 309 2531 
Q 222 2531 100 2484 
L 53 2597 
L 916 2947 
L 1050 2947 
L 1050 2338 
z
" transform="scale(0.015625)"/>
       <path id="TimesNewRomanPSMT-35" d="M 2778 4238 
L 2534 3706 
L 1259 3706 
L 981 3138 
Q 1809 3016 2294 2522 
Q 2709 2097 2709 1522 
Q 2709 1188 2573 903 
Q 2438 619 2231 419 
Q 2025 219 1772 97 
Q 1413 -75 1034 -75 
Q 653 -75 479 54 
Q 306 184 306 341 
Q 306 428 378 495 
Q 450 563 559 563 
Q 641 563 702 538 
Q 763 513 909 409 
Q 1144 247 1384 247 
Q 1750 247 2026 523 
Q 2303 800 2303 1197 
Q 2303 1581 2056 1914 
Q 1809 2247 1375 2428 
Q 1034 2569 447 2591 
L 1259 4238 
L 2778 4238 
z
" transform="scale(0.015625)"/>
       <path id="TimesNewRomanPSMT-6e" d="M 1034 2341 
Q 1538 2947 1994 2947 
Q 2228 2947 2397 2830 
Q 2566 2713 2666 2444 
Q 2734 2256 2734 1869 
L 2734 647 
Q 2734 375 2778 278 
Q 2813 200 2889 156 
Q 2966 113 3172 113 
L 3172 0 
L 1756 0 
L 1756 113 
L 1816 113 
Q 2016 113 2095 173 
Q 2175 234 2206 353 
Q 2219 400 2219 647 
L 2219 1819 
Q 2219 2209 2117 2386 
Q 2016 2563 1775 2563 
Q 1403 2563 1034 2156 
L 1034 647 
Q 1034 356 1069 288 
Q 1113 197 1189 155 
Q 1266 113 1500 113 
L 1500 0 
L 84 0 
L 84 113 
L 147 113 
Q 366 113 442 223 
Q 519 334 519 647 
L 519 1709 
Q 519 2225 495 2337 
Q 472 2450 423 2490 
Q 375 2531 294 2531 
Q 206 2531 84 2484 
L 38 2597 
L 900 2947 
L 1034 2947 
L 1034 2341 
z
" transform="scale(0.015625)"/>
       <path id="TimesNewRomanPSMT-49" d="M 1975 116 
L 1975 0 
L 159 0 
L 159 116 
L 309 116 
Q 572 116 691 269 
Q 766 369 766 750 
L 766 3488 
Q 766 3809 725 3913 
Q 694 3991 597 4047 
Q 459 4122 309 4122 
L 159 4122 
L 159 4238 
L 1975 4238 
L 1975 4122 
L 1822 4122 
Q 1563 4122 1444 3969 
Q 1366 3869 1366 3488 
L 1366 750 
Q 1366 428 1406 325 
Q 1438 247 1538 191 
Q 1672 116 1822 116 
L 1975 116 
z
" transform="scale(0.015625)"/>
       <path id="TimesNewRomanPSMT-72" d="M 1038 2947 
L 1038 2303 
Q 1397 2947 1775 2947 
Q 1947 2947 2059 2842 
Q 2172 2738 2172 2600 
Q 2172 2478 2090 2393 
Q 2009 2309 1897 2309 
Q 1788 2309 1652 2417 
Q 1516 2525 1450 2525 
Q 1394 2525 1328 2463 
Q 1188 2334 1038 2041 
L 1038 669 
Q 1038 431 1097 309 
Q 1138 225 1241 169 
Q 1344 113 1538 113 
L 1538 0 
L 72 0 
L 72 113 
Q 291 113 397 181 
Q 475 231 506 341 
Q 522 394 522 644 
L 522 1753 
Q 522 2253 501 2348 
Q 481 2444 426 2487 
Q 372 2531 291 2531 
Q 194 2531 72 2484 
L 41 2597 
L 906 2947 
L 1038 2947 
z
" transform="scale(0.015625)"/>
       <path id="TimesNewRomanPSMT-76" d="M 53 2863 
L 1400 2863 
L 1400 2747 
L 1313 2747 
Q 1191 2747 1127 2687 
Q 1063 2628 1063 2528 
Q 1063 2419 1128 2269 
L 1794 688 
L 2463 2328 
Q 2534 2503 2534 2594 
Q 2534 2638 2509 2666 
Q 2475 2713 2422 2730 
Q 2369 2747 2206 2747 
L 2206 2863 
L 3141 2863 
L 3141 2747 
Q 2978 2734 2916 2681 
Q 2806 2588 2719 2369 
L 1703 -88 
L 1575 -88 
L 553 2328 
Q 484 2497 421 2570 
Q 359 2644 263 2694 
Q 209 2722 53 2747 
L 53 2863 
z
" transform="scale(0.015625)"/>
       <path id="TimesNewRomanPSMT-61" d="M 1822 413 
Q 1381 72 1269 19 
Q 1100 -59 909 -59 
Q 613 -59 420 144 
Q 228 347 228 678 
Q 228 888 322 1041 
Q 450 1253 767 1440 
Q 1084 1628 1822 1897 
L 1822 2009 
Q 1822 2438 1686 2597 
Q 1550 2756 1291 2756 
Q 1094 2756 978 2650 
Q 859 2544 859 2406 
L 866 2225 
Q 866 2081 792 2003 
Q 719 1925 600 1925 
Q 484 1925 411 2006 
Q 338 2088 338 2228 
Q 338 2497 613 2722 
Q 888 2947 1384 2947 
Q 1766 2947 2009 2819 
Q 2194 2722 2281 2516 
Q 2338 2381 2338 1966 
L 2338 994 
Q 2338 584 2353 492 
Q 2369 400 2405 369 
Q 2441 338 2488 338 
Q 2538 338 2575 359 
Q 2641 400 2828 588 
L 2828 413 
Q 2478 -56 2159 -56 
Q 2006 -56 1915 50 
Q 1825 156 1822 413 
z
M 1822 616 
L 1822 1706 
Q 1350 1519 1213 1441 
Q 966 1303 859 1153 
Q 753 1003 753 825 
Q 753 600 887 451 
Q 1022 303 1197 303 
Q 1434 303 1822 616 
z
" transform="scale(0.015625)"/>
       <path id="TimesNewRomanPSMT-6c" d="M 1184 4444 
L 1184 647 
Q 1184 378 1223 290 
Q 1263 203 1344 158 
Q 1425 113 1647 113 
L 1647 0 
L 244 0 
L 244 113 
Q 441 113 512 153 
Q 584 194 625 287 
Q 666 381 666 647 
L 666 3247 
Q 666 3731 644 3842 
Q 622 3953 573 3993 
Q 525 4034 450 4034 
Q 369 4034 244 3984 
L 191 4094 
L 1044 4444 
L 1184 4444 
z
" transform="scale(0.015625)"/>
      </defs>
      <use xlink:href="#TimesNewRomanPSMT-5a"/>
      <use xlink:href="#TimesNewRomanPSMT-65" x="61.083984"/>
      <use xlink:href="#TimesNewRomanPSMT-69" x="105.46875"/>
      <use xlink:href="#TimesNewRomanPSMT-74" x="133.251953"/>
      <use xlink:href="#TimesNewRomanPSMT-20" x="161.035156"/>
      <use xlink:href="#TimesNewRomanPSMT-69" x="186.035156"/>
      <use xlink:href="#TimesNewRomanPSMT-6d" x="213.818359"/>
      <use xlink:href="#TimesNewRomanPSMT-20" x="291.601562"/>
      <use xlink:href="#TimesNewRomanPSMT-31" x="316.601562"/>
      <use xlink:href="#TimesNewRomanPSMT-35" x="366.601562"/>
      <use xlink:href="#TimesNewRomanPSMT-20" x="416.601562"/>
      <use xlink:href="#TimesNewRomanPSMT-6d" x="441.601562"/>
      <use xlink:href="#TimesNewRomanPSMT-69" x="519.384766"/>
      <use xlink:href="#TimesNewRomanPSMT-6e" x="547.167969"/>
      <use xlink:href="#TimesNewRomanPSMT-20" x="597.167969"/>
      <use xlink:href="#TimesNewRomanPSMT-49" x="622.167969"/>
      <use xlink:href="#TimesNewRomanPSMT-6e" x="655.46875"/>
      <use xlink:href="#TimesNewRomanPSMT-74" x="705.46875"/>
      <use xlink:href="#TimesNewRomanPSMT-65" x="733.251953"/>
      <use xlink:href="#TimesNewRomanPSMT-72" x="777.636719"/>
      <use xlink:href="#TimesNewRomanPSMT-76" x="810.9375"/>
      <use xlink:href="#TimesNewRomanPSMT-61" x="860.9375"/>
      <use xlink:href="#TimesNewRomanPSMT-6c" x="905.322266"/>
      <use xlink:href="#TimesNewRomanPSMT-6c" x="933.105469"/>
     </g>
    </g>
   </g>
   <g id="matplotlib.axis_2">
    <g id="ytick_1">
     <g id="line2d_7">
      <path d="M 126 320.4 
L 481.090909 320.4 
" clip-path="url(#p8e9f5e5f84)" style="fill: none; stroke: #ffffff; stroke-linecap: round"/>
     </g>
     <g id="text_8">
      <!-- 0.6 -->
      <g style="fill: #262626" transform="translate(100 324.982875) scale(0.132 -0.132)">
       <defs>
        <path id="TimesNewRomanPSMT-2e" d="M 800 606 
Q 947 606 1047 504 
Q 1147 403 1147 259 
Q 1147 116 1045 14 
Q 944 -88 800 -88 
Q 656 -88 554 14 
Q 453 116 453 259 
Q 453 406 554 506 
Q 656 606 800 606 
z
" transform="scale(0.015625)"/>
       </defs>
       <use xlink:href="#TimesNewRomanPSMT-30"/>
       <use xlink:href="#TimesNewRomanPSMT-2e" x="50"/>
       <use xlink:href="#TimesNewRomanPSMT-36" x="75"/>
      </g>
     </g>
    </g>
    <g id="ytick_2">
     <g id="line2d_8">
      <path d="M 126 264.96 
L 481.090909 264.96 
" clip-path="url(#p8e9f5e5f84)" style="fill: none; stroke: #ffffff; stroke-linecap: round"/>
     </g>
     <g id="text_9">
      <!-- 0.7 -->
      <g style="fill: #262626" transform="translate(100 269.542875) scale(0.132 -0.132)">
       <defs>
        <path id="TimesNewRomanPSMT-37" d="M 644 4238 
L 2916 4238 
L 2916 4119 
L 1503 -88 
L 1153 -88 
L 2419 3728 
L 1253 3728 
Q 900 3728 750 3644 
Q 488 3500 328 3200 
L 238 3234 
L 644 4238 
z
" transform="scale(0.015625)"/>
       </defs>
       <use xlink:href="#TimesNewRomanPSMT-30"/>
       <use xlink:href="#TimesNewRomanPSMT-2e" x="50"/>
       <use xlink:href="#TimesNewRomanPSMT-37" x="75"/>
      </g>
     </g>
    </g>
    <g id="ytick_3">
     <g id="line2d_9">
      <path d="M 126 209.52 
L 481.090909 209.52 
" clip-path="url(#p8e9f5e5f84)" style="fill: none; stroke: #ffffff; stroke-linecap: round"/>
     </g>
     <g id="text_10">
      <!-- 0.8 -->
      <g style="fill: #262626" transform="translate(100 214.102875) scale(0.132 -0.132)">
       <use xlink:href="#TimesNewRomanPSMT-30"/>
       <use xlink:href="#TimesNewRomanPSMT-2e" x="50"/>
       <use xlink:href="#TimesNewRomanPSMT-38" x="75"/>
      </g>
     </g>
    </g>
    <g id="ytick_4">
     <g id="line2d_10">
      <path d="M 126 154.08 
L 481.090909 154.08 
" clip-path="url(#p8e9f5e5f84)" style="fill: none; stroke: #ffffff; stroke-linecap: round"/>
     </g>
     <g id="text_11">
      <!-- 0.9 -->
      <g style="fill: #262626" transform="translate(100 158.662875) scale(0.132 -0.132)">
       <defs>
        <path id="TimesNewRomanPSMT-39" d="M 338 -88 
L 338 28 
Q 744 34 1094 217 
Q 1444 400 1770 856 
Q 2097 1313 2225 1859 
Q 1734 1544 1338 1544 
Q 891 1544 572 1889 
Q 253 2234 253 2806 
Q 253 3363 572 3797 
Q 956 4325 1575 4325 
Q 2097 4325 2469 3894 
Q 2925 3359 2925 2575 
Q 2925 1869 2578 1258 
Q 2231 647 1613 244 
Q 1109 -88 516 -88 
L 338 -88 
z
M 2275 2091 
Q 2331 2497 2331 2741 
Q 2331 3044 2228 3395 
Q 2125 3747 1936 3934 
Q 1747 4122 1506 4122 
Q 1228 4122 1018 3872 
Q 809 3622 809 3128 
Q 809 2469 1088 2097 
Q 1291 1828 1588 1828 
Q 1731 1828 1928 1897 
Q 2125 1966 2275 2091 
z
" transform="scale(0.015625)"/>
       </defs>
       <use xlink:href="#TimesNewRomanPSMT-30"/>
       <use xlink:href="#TimesNewRomanPSMT-2e" x="50"/>
       <use xlink:href="#TimesNewRomanPSMT-39" x="75"/>
      </g>
     </g>
    </g>
    <g id="ytick_5">
     <g id="line2d_11">
      <path d="M 126 98.64 
L 481.090909 98.64 
" clip-path="url(#p8e9f5e5f84)" style="fill: none; stroke: #ffffff; stroke-linecap: round"/>
     </g>
     <g id="text_12">
      <!-- 1.0 -->
      <g style="fill: #262626" transform="translate(100 103.222875) scale(0.132 -0.132)">
       <use xlink:href="#TimesNewRomanPSMT-31"/>
       <use xlink:href="#TimesNewRomanPSMT-2e" x="50"/>
       <use xlink:href="#TimesNewRomanPSMT-30" x="75"/>
      </g>
     </g>
    </g>
    <g id="ytick_6">
     <g id="line2d_12">
      <path d="M 126 43.2 
L 481.090909 43.2 
" clip-path="url(#p8e9f5e5f84)" style="fill: none; stroke: #ffffff; stroke-linecap: round"/>
     </g>
     <g id="text_13">
      <!-- 1.1 -->
      <g style="fill: #262626" transform="translate(100 47.782875) scale(0.132 -0.132)">
       <use xlink:href="#TimesNewRomanPSMT-31"/>
       <use xlink:href="#TimesNewRomanPSMT-2e" x="50"/>
       <use xlink:href="#TimesNewRomanPSMT-31" x="75"/>
      </g>
     </g>
    </g>
    <g id="text_14">
     <!-- Normierte Elektrische Last -->
     <g style="fill: #262626" transform="translate(93.433125 246.775312) rotate(-90) scale(0.12 -0.12)">
      <defs>
       <path id="TimesNewRomanPSMT-4e" d="M -84 4238 
L 1066 4238 
L 3656 1059 
L 3656 3503 
Q 3656 3894 3569 3991 
Q 3453 4122 3203 4122 
L 3056 4122 
L 3056 4238 
L 4531 4238 
L 4531 4122 
L 4381 4122 
Q 4113 4122 4000 3959 
Q 3931 3859 3931 3503 
L 3931 -69 
L 3819 -69 
L 1025 3344 
L 1025 734 
Q 1025 344 1109 247 
Q 1228 116 1475 116 
L 1625 116 
L 1625 0 
L 150 0 
L 150 116 
L 297 116 
Q 569 116 681 278 
Q 750 378 750 734 
L 750 3681 
Q 566 3897 470 3965 
Q 375 4034 191 4094 
Q 100 4122 -84 4122 
L -84 4238 
z
" transform="scale(0.015625)"/>
       <path id="TimesNewRomanPSMT-6f" d="M 1600 2947 
Q 2250 2947 2644 2453 
Q 2978 2031 2978 1484 
Q 2978 1100 2793 706 
Q 2609 313 2286 112 
Q 1963 -88 1566 -88 
Q 919 -88 538 428 
Q 216 863 216 1403 
Q 216 1797 411 2186 
Q 606 2575 925 2761 
Q 1244 2947 1600 2947 
z
M 1503 2744 
Q 1338 2744 1170 2645 
Q 1003 2547 900 2300 
Q 797 2053 797 1666 
Q 797 1041 1045 587 
Q 1294 134 1700 134 
Q 2003 134 2200 384 
Q 2397 634 2397 1244 
Q 2397 2006 2069 2444 
Q 1847 2744 1503 2744 
z
" transform="scale(0.015625)"/>
       <path id="TimesNewRomanPSMT-45" d="M 1338 4006 
L 1338 2331 
L 2269 2331 
Q 2631 2331 2753 2441 
Q 2916 2584 2934 2947 
L 3050 2947 
L 3050 1472 
L 2934 1472 
Q 2891 1781 2847 1869 
Q 2791 1978 2662 2040 
Q 2534 2103 2269 2103 
L 1338 2103 
L 1338 706 
Q 1338 425 1363 364 
Q 1388 303 1450 267 
Q 1513 231 1688 231 
L 2406 231 
Q 2766 231 2928 281 
Q 3091 331 3241 478 
Q 3434 672 3638 1063 
L 3763 1063 
L 3397 0 
L 131 0 
L 131 116 
L 281 116 
Q 431 116 566 188 
Q 666 238 702 338 
Q 738 438 738 747 
L 738 3500 
Q 738 3903 656 3997 
Q 544 4122 281 4122 
L 131 4122 
L 131 4238 
L 3397 4238 
L 3444 3309 
L 3322 3309 
Q 3256 3644 3176 3769 
Q 3097 3894 2941 3959 
Q 2816 4006 2500 4006 
L 1338 4006 
z
" transform="scale(0.015625)"/>
       <path id="TimesNewRomanPSMT-6b" d="M 1047 4444 
L 1047 1597 
L 1775 2259 
Q 2006 2472 2044 2528 
Q 2069 2566 2069 2603 
Q 2069 2666 2017 2711 
Q 1966 2756 1847 2763 
L 1847 2863 
L 3091 2863 
L 3091 2763 
Q 2834 2756 2664 2684 
Q 2494 2613 2291 2428 
L 1556 1750 
L 2291 822 
Q 2597 438 2703 334 
Q 2853 188 2966 144 
Q 3044 113 3238 113 
L 3238 0 
L 1847 0 
L 1847 113 
Q 1966 116 2008 148 
Q 2050 181 2050 241 
Q 2050 313 1925 472 
L 1047 1594 
L 1047 644 
Q 1047 366 1086 278 
Q 1125 191 1197 153 
Q 1269 116 1509 113 
L 1509 0 
L 53 0 
L 53 113 
Q 272 113 381 166 
Q 447 200 481 272 
Q 528 375 528 628 
L 528 3234 
Q 528 3731 506 3842 
Q 484 3953 434 3995 
Q 384 4038 303 4038 
Q 238 4038 106 3984 
L 53 4094 
L 903 4444 
L 1047 4444 
z
" transform="scale(0.015625)"/>
       <path id="TimesNewRomanPSMT-73" d="M 2050 2947 
L 2050 1972 
L 1947 1972 
Q 1828 2431 1642 2597 
Q 1456 2763 1169 2763 
Q 950 2763 815 2647 
Q 681 2531 681 2391 
Q 681 2216 781 2091 
Q 878 1963 1175 1819 
L 1631 1597 
Q 2266 1288 2266 781 
Q 2266 391 1970 151 
Q 1675 -88 1309 -88 
Q 1047 -88 709 6 
Q 606 38 541 38 
Q 469 38 428 -44 
L 325 -44 
L 325 978 
L 428 978 
Q 516 541 762 319 
Q 1009 97 1316 97 
Q 1531 97 1667 223 
Q 1803 350 1803 528 
Q 1803 744 1651 891 
Q 1500 1038 1047 1263 
Q 594 1488 453 1669 
Q 313 1847 313 2119 
Q 313 2472 555 2709 
Q 797 2947 1181 2947 
Q 1350 2947 1591 2875 
Q 1750 2828 1803 2828 
Q 1853 2828 1881 2850 
Q 1909 2872 1947 2947 
L 2050 2947 
z
" transform="scale(0.015625)"/>
       <path id="TimesNewRomanPSMT-63" d="M 2631 1088 
Q 2516 522 2178 217 
Q 1841 -88 1431 -88 
Q 944 -88 581 321 
Q 219 731 219 1428 
Q 219 2103 620 2525 
Q 1022 2947 1584 2947 
Q 2006 2947 2278 2723 
Q 2550 2500 2550 2259 
Q 2550 2141 2473 2067 
Q 2397 1994 2259 1994 
Q 2075 1994 1981 2113 
Q 1928 2178 1911 2362 
Q 1894 2547 1784 2644 
Q 1675 2738 1481 2738 
Q 1169 2738 978 2506 
Q 725 2200 725 1697 
Q 725 1184 976 792 
Q 1228 400 1656 400 
Q 1963 400 2206 609 
Q 2378 753 2541 1131 
L 2631 1088 
z
" transform="scale(0.015625)"/>
       <path id="TimesNewRomanPSMT-68" d="M 1041 4444 
L 1041 2350 
Q 1388 2731 1591 2839 
Q 1794 2947 1997 2947 
Q 2241 2947 2416 2812 
Q 2591 2678 2675 2391 
Q 2734 2191 2734 1659 
L 2734 647 
Q 2734 375 2778 275 
Q 2809 200 2884 156 
Q 2959 113 3159 113 
L 3159 0 
L 1753 0 
L 1753 113 
L 1819 113 
Q 2019 113 2097 173 
Q 2175 234 2206 353 
Q 2216 403 2216 647 
L 2216 1659 
Q 2216 2128 2167 2275 
Q 2119 2422 2012 2495 
Q 1906 2569 1756 2569 
Q 1603 2569 1437 2487 
Q 1272 2406 1041 2159 
L 1041 647 
Q 1041 353 1073 281 
Q 1106 209 1195 161 
Q 1284 113 1503 113 
L 1503 0 
L 84 0 
L 84 113 
Q 275 113 384 172 
Q 447 203 484 290 
Q 522 378 522 647 
L 522 3238 
Q 522 3728 498 3840 
Q 475 3953 426 3993 
Q 378 4034 297 4034 
Q 231 4034 84 3984 
L 41 4094 
L 897 4444 
L 1041 4444 
z
" transform="scale(0.015625)"/>
       <path id="TimesNewRomanPSMT-4c" d="M 3669 1172 
L 3772 1150 
L 3409 0 
L 128 0 
L 128 116 
L 288 116 
Q 556 116 672 291 
Q 738 391 738 753 
L 738 3488 
Q 738 3884 650 3984 
Q 528 4122 288 4122 
L 128 4122 
L 128 4238 
L 2047 4238 
L 2047 4122 
Q 1709 4125 1573 4059 
Q 1438 3994 1388 3894 
Q 1338 3794 1338 3416 
L 1338 753 
Q 1338 494 1388 397 
Q 1425 331 1503 300 
Q 1581 269 1991 269 
L 2300 269 
Q 2788 269 2984 341 
Q 3181 413 3343 595 
Q 3506 778 3669 1172 
z
" transform="scale(0.015625)"/>
      </defs>
      <use xlink:href="#TimesNewRomanPSMT-4e"/>
      <use xlink:href="#TimesNewRomanPSMT-6f" x="72.216797"/>
      <use xlink:href="#TimesNewRomanPSMT-72" x="122.216797"/>
      <use xlink:href="#TimesNewRomanPSMT-6d" x="155.517578"/>
      <use xlink:href="#TimesNewRomanPSMT-69" x="233.300781"/>
      <use xlink:href="#TimesNewRomanPSMT-65" x="261.083984"/>
      <use xlink:href="#TimesNewRomanPSMT-72" x="305.46875"/>
      <use xlink:href="#TimesNewRomanPSMT-74" x="338.769531"/>
      <use xlink:href="#TimesNewRomanPSMT-65" x="366.552734"/>
      <use xlink:href="#TimesNewRomanPSMT-20" x="410.9375"/>
      <use xlink:href="#TimesNewRomanPSMT-45" x="435.9375"/>
      <use xlink:href="#TimesNewRomanPSMT-6c" x="497.021484"/>
      <use xlink:href="#TimesNewRomanPSMT-65" x="524.804688"/>
      <use xlink:href="#TimesNewRomanPSMT-6b" x="569.189453"/>
      <use xlink:href="#TimesNewRomanPSMT-74" x="619.189453"/>
      <use xlink:href="#TimesNewRomanPSMT-72" x="646.972656"/>
      <use xlink:href="#TimesNewRomanPSMT-69" x="680.273438"/>
      <use xlink:href="#TimesNewRomanPSMT-73" x="708.056641"/>
      <use xlink:href="#TimesNewRomanPSMT-63" x="746.972656"/>
      <use xlink:href="#TimesNewRomanPSMT-68" x="791.357422"/>
      <use xlink:href="#TimesNewRomanPSMT-65" x="841.357422"/>
      <use xlink:href="#TimesNewRomanPSMT-20" x="885.742188"/>
      <use xlink:href="#TimesNewRomanPSMT-4c" x="910.742188"/>
      <use xlink:href="#TimesNewRomanPSMT-61" x="971.826172"/>
      <use xlink:href="#TimesNewRomanPSMT-73" x="1016.210938"/>
      <use xlink:href="#TimesNewRomanPSMT-74" x="1055.126953"/>
     </g>
    </g>
   </g>
   <g id="PolyCollection_1">
    <defs>
     <path id="m236caec3a3" d="M 142.140496 -105.591563 
L 142.140496 -89.285089 
L 145.538495 -86.569863 
L 148.936494 -80.921678 
L 152.334493 -79.588147 
L 155.732492 -77.166908 
L 159.130492 -76.976876 
L 162.528491 -77.079652 
L 165.92649 -76.172552 
L 169.324489 -73.947411 
L 172.722488 -73.165898 
L 176.120487 -72.502514 
L 179.518486 -73.984165 
L 182.916485 -78.770879 
L 186.314485 -78.08111 
L 189.712484 -83.298502 
L 193.110483 -87.882474 
L 196.508482 -96.034391 
L 199.906481 -99.867692 
L 203.30448 -107.505018 
L 206.702479 -117.945211 
L 210.100478 -135.426481 
L 213.498478 -153.750539 
L 216.896477 -171.333279 
L 220.294476 -183.25577 
L 223.692475 -197.448952 
L 227.090474 -206.725214 
L 230.488473 -216.332029 
L 233.886472 -224.029761 
L 237.284472 -229.21686 
L 240.682471 -232.450124 
L 244.08047 -233.117418 
L 247.478469 -235.734545 
L 250.876468 -234.478233 
L 254.274467 -236.906286 
L 257.672466 -240.144713 
L 261.070465 -242.175179 
L 264.468465 -241.605409 
L 267.866464 -243.958303 
L 271.264463 -248.718855 
L 274.662462 -249.595022 
L 278.060461 -246.791525 
L 281.45846 -246.052587 
L 284.856459 -250.539215 
L 288.254458 -253.214258 
L 291.652458 -251.223776 
L 295.050457 -252.381605 
L 298.448456 -249.480925 
L 301.846455 -245.642851 
L 305.244454 -242.386683 
L 308.642453 -239.230534 
L 312.040452 -237.09279 
L 315.438452 -234.75014 
L 318.836451 -236.16616 
L 322.23445 -231.078941 
L 325.632449 -226.883019 
L 329.030448 -224.856909 
L 332.428447 -224.076066 
L 335.826446 -223.131898 
L 339.224445 -221.70278 
L 342.622445 -219.391785 
L 346.020444 -214.769829 
L 349.418443 -212.314378 
L 352.816442 -215.821861 
L 356.214441 -221.899947 
L 359.61244 -228.598612 
L 363.010439 -235.1793 
L 366.408438 -239.990729 
L 369.806438 -241.301505 
L 373.204437 -238.075833 
L 376.602436 -231.123417 
L 380.000435 -232.187335 
L 383.398434 -228.479643 
L 386.796433 -225.700437 
L 390.194432 -218.339954 
L 393.592431 -210.28141 
L 396.990431 -208.441036 
L 400.38843 -199.554096 
L 403.786429 -192.387385 
L 407.184428 -186.773333 
L 410.582427 -180.220297 
L 413.980426 -171.988703 
L 417.378425 -165.251432 
L 420.776425 -160.063141 
L 424.174424 -154.78849 
L 427.572423 -154.073631 
L 430.970422 -148.89973 
L 434.368421 -141.317429 
L 437.76642 -131.954692 
L 441.164419 -123.875746 
L 444.562418 -115.762243 
L 447.960418 -107.474934 
L 451.358417 -101.447448 
L 454.756416 -98.45692 
L 458.154415 -92.747031 
L 461.552414 -85.153707 
L 464.950413 -77.53252 
L 464.950413 -94.378735 
L 464.950413 -94.378735 
L 461.552414 -102.576123 
L 458.154415 -109.204912 
L 454.756416 -114.46393 
L 451.358417 -118.696825 
L 447.960418 -124.224629 
L 444.562418 -131.879422 
L 441.164419 -139.990361 
L 437.76642 -148.497863 
L 434.368421 -157.622653 
L 430.970422 -165.335085 
L 427.572423 -170.593936 
L 424.174424 -171.640708 
L 420.776425 -176.745683 
L 417.378425 -181.69671 
L 413.980426 -189.191056 
L 410.582427 -197.280017 
L 407.184428 -203.326555 
L 403.786429 -208.875126 
L 400.38843 -216.092804 
L 396.990431 -224.743384 
L 393.592431 -227.08273 
L 390.194432 -235.51464 
L 386.796433 -241.142346 
L 383.398434 -245.330407 
L 380.000435 -248.425785 
L 376.602436 -247.550704 
L 373.204437 -254.650906 
L 369.806438 -257.488385 
L 366.408438 -256.782685 
L 363.010439 -251.578909 
L 359.61244 -245.455685 
L 356.214441 -238.811949 
L 352.816442 -232.225726 
L 349.418443 -228.247932 
L 346.020444 -230.998263 
L 342.622445 -235.947092 
L 339.224445 -238.284369 
L 335.826446 -239.366724 
L 332.428447 -241.035075 
L 329.030448 -241.467741 
L 325.632449 -243.675256 
L 322.23445 -247.362208 
L 318.836451 -253.008716 
L 315.438452 -251.423874 
L 312.040452 -253.072181 
L 308.642453 -255.599142 
L 305.244454 -259.353765 
L 301.846455 -262.398016 
L 298.448456 -266.361186 
L 295.050457 -269.142675 
L 291.652458 -267.94738 
L 288.254458 -269.547734 
L 284.856459 -266.705587 
L 281.45846 -262.242587 
L 278.060461 -262.825462 
L 274.662462 -265.846564 
L 271.264463 -265.352013 
L 267.866464 -261.036819 
L 264.468465 -258.262474 
L 261.070465 -258.917234 
L 257.672466 -256.396667 
L 254.274467 -252.868297 
L 250.876468 -251.430409 
L 247.478469 -252.159794 
L 244.08047 -250.064661 
L 240.682471 -248.858742 
L 237.284472 -246.23312 
L 233.886472 -240.457619 
L 230.488473 -232.373103 
L 227.090474 -223.097016 
L 223.692475 -214.63576 
L 220.294476 -200.216498 
L 216.896477 -187.523485 
L 213.498478 -170.004381 
L 210.100478 -151.925518 
L 206.702479 -134.54166 
L 203.30448 -124.144872 
L 199.906481 -116.301666 
L 196.508482 -111.708343 
L 193.110483 -104.772069 
L 189.712484 -99.253624 
L 186.314485 -94.703531 
L 182.916485 -95.357849 
L 179.518486 -90.51033 
L 176.120487 -88.297423 
L 172.722488 -90.124371 
L 169.324489 -90.608086 
L 165.92649 -92.875124 
L 162.528491 -94.045651 
L 159.130492 -92.988105 
L 155.732492 -93.575218 
L 152.334493 -95.413378 
L 148.936494 -97.084843 
L 145.538495 -103.318083 
L 142.140496 -105.591563 
z
" style="stroke: #008000; stroke-opacity: 0.2"/>
    </defs>
    <g clip-path="url(#p8e9f5e5f84)">
     <use xlink:href="#m236caec3a3" x="0" y="360" style="fill: #008000; fill-opacity: 0.2; stroke: #008000; stroke-opacity: 0.2"/>
    </g>
   </g>
   <g id="line2d_13">
    <path d="M 142.140496 262.561674 
L 145.538495 265.056027 
L 148.936494 270.996739 
L 152.334493 272.499237 
L 155.732492 274.628937 
L 159.130492 275.017509 
L 162.528491 274.437349 
L 165.92649 275.476162 
L 169.324489 277.722252 
L 172.722488 278.354865 
L 176.120487 279.600032 
L 179.518486 277.752752 
L 182.916485 272.935636 
L 186.314485 273.607679 
L 189.712484 268.723937 
L 193.110483 263.672729 
L 196.508482 256.128633 
L 199.906481 251.915321 
L 203.30448 244.175055 
L 206.702479 233.756565 
L 210.100478 216.324 
L 213.498478 198.12254 
L 216.896477 180.571618 
L 220.294476 168.263866 
L 223.692475 153.957644 
L 227.090474 145.088885 
L 230.488473 135.647434 
L 233.886472 127.75631 
L 237.284472 122.27501 
L 240.682471 119.345567 
L 244.08047 118.408961 
L 247.478469 116.05283 
L 250.876468 117.045679 
L 254.274467 115.112708 
L 257.672466 111.72931 
L 261.070465 109.453794 
L 264.468465 110.066059 
L 267.866464 107.502439 
L 271.264463 102.964566 
L 274.662462 102.279207 
L 278.060461 105.191506 
L 281.45846 105.852413 
L 284.856459 101.377599 
L 288.254458 98.619004 
L 291.652458 100.414422 
L 295.050457 99.23786 
L 298.448456 102.078945 
L 301.846455 105.979566 
L 305.244454 109.129776 
L 308.642453 112.585162 
L 312.040452 114.917515 
L 315.438452 116.912993 
L 318.836451 115.412562 
L 322.23445 120.779426 
L 325.632449 124.720862 
L 329.030448 126.837675 
L 332.428447 127.44443 
L 335.826446 128.750689 
L 339.224445 130.006426 
L 342.622445 132.330561 
L 346.020444 137.115954 
L 349.418443 139.718845 
L 352.816442 135.976207 
L 356.214441 129.644052 
L 359.61244 122.972851 
L 363.010439 116.620895 
L 366.408438 111.613293 
L 369.806438 110.605055 
L 373.204437 113.63663 
L 376.602436 120.66294 
L 380.000435 119.69344 
L 383.398434 123.094975 
L 386.796433 126.578608 
L 390.194432 133.072703 
L 393.592431 141.31793 
L 396.990431 143.40779 
L 400.38843 152.17655 
L 403.786429 159.368745 
L 407.184428 164.950056 
L 410.582427 171.249843 
L 413.980426 179.41012 
L 417.378425 186.525929 
L 420.776425 191.595588 
L 424.174424 196.785401 
L 427.572423 197.666217 
L 430.970422 202.882593 
L 434.368421 210.529959 
L 437.76642 219.773722 
L 441.164419 228.066947 
L 444.562418 236.179167 
L 447.960418 244.150219 
L 451.358417 249.927864 
L 454.756416 253.539575 
L 458.154415 259.024029 
L 461.552414 266.135085 
L 464.950413 274.044372 
" clip-path="url(#p8e9f5e5f84)" style="fill: none; stroke: #008000; stroke-width: 1.5; stroke-linecap: round"/>
   </g>
   <g id="patch_3">
    <path d="M 126 320.4 
L 126 43.2 
" style="fill: none; stroke: #ffffff; stroke-width: 1.25; stroke-linejoin: miter; stroke-linecap: square"/>
   </g>
   <g id="patch_4">
    <path d="M 481.090909 320.4 
L 481.090909 43.2 
" style="fill: none; stroke: #ffffff; stroke-width: 1.25; stroke-linejoin: miter; stroke-linecap: square"/>
   </g>
   <g id="patch_5">
    <path d="M 126 320.4 
L 481.090909 320.4 
" style="fill: none; stroke: #ffffff; stroke-width: 1.25; stroke-linejoin: miter; stroke-linecap: square"/>
   </g>
   <g id="patch_6">
    <path d="M 126 43.2 
L 481.090909 43.2 
" style="fill: none; stroke: #ffffff; stroke-width: 1.25; stroke-linejoin: miter; stroke-linecap: square"/>
   </g>
   <g id="text_15">
    <!-- Beispiel Lastprognose 1 -->
    <g style="fill: #262626" transform="translate(233.955205 37.2) scale(0.144 -0.144)">
     <defs>
      <path id="TimesNewRomanPSMT-42" d="M 2956 2163 
Q 3397 2069 3616 1863 
Q 3919 1575 3919 1159 
Q 3919 844 3719 555 
Q 3519 266 3170 133 
Q 2822 0 2106 0 
L 106 0 
L 106 116 
L 266 116 
Q 531 116 647 284 
Q 719 394 719 750 
L 719 3488 
Q 719 3881 628 3984 
Q 506 4122 266 4122 
L 106 4122 
L 106 4238 
L 1938 4238 
Q 2450 4238 2759 4163 
Q 3228 4050 3475 3764 
Q 3722 3478 3722 3106 
Q 3722 2788 3528 2536 
Q 3334 2284 2956 2163 
z
M 1319 2331 
Q 1434 2309 1582 2298 
Q 1731 2288 1909 2288 
Q 2366 2288 2595 2386 
Q 2825 2484 2947 2687 
Q 3069 2891 3069 3131 
Q 3069 3503 2766 3765 
Q 2463 4028 1881 4028 
Q 1569 4028 1319 3959 
L 1319 2331 
z
M 1319 306 
Q 1681 222 2034 222 
Q 2600 222 2897 476 
Q 3194 731 3194 1106 
Q 3194 1353 3059 1581 
Q 2925 1809 2622 1940 
Q 2319 2072 1872 2072 
Q 1678 2072 1540 2065 
Q 1403 2059 1319 2044 
L 1319 306 
z
" transform="scale(0.015625)"/>
      <path id="TimesNewRomanPSMT-70" d="M -6 2578 
L 875 2934 
L 994 2934 
L 994 2266 
Q 1216 2644 1439 2795 
Q 1663 2947 1909 2947 
Q 2341 2947 2628 2609 
Q 2981 2197 2981 1534 
Q 2981 794 2556 309 
Q 2206 -88 1675 -88 
Q 1444 -88 1275 -22 
Q 1150 25 994 166 
L 994 -706 
Q 994 -1000 1030 -1079 
Q 1066 -1159 1155 -1206 
Q 1244 -1253 1478 -1253 
L 1478 -1369 
L -22 -1369 
L -22 -1253 
L 56 -1253 
Q 228 -1256 350 -1188 
Q 409 -1153 442 -1076 
Q 475 -1000 475 -688 
L 475 2019 
Q 475 2297 450 2372 
Q 425 2447 370 2484 
Q 316 2522 222 2522 
Q 147 2522 31 2478 
L -6 2578 
z
M 994 2081 
L 994 1013 
Q 994 666 1022 556 
Q 1066 375 1236 237 
Q 1406 100 1666 100 
Q 1978 100 2172 344 
Q 2425 663 2425 1241 
Q 2425 1897 2138 2250 
Q 1938 2494 1663 2494 
Q 1513 2494 1366 2419 
Q 1253 2363 994 2081 
z
" transform="scale(0.015625)"/>
      <path id="TimesNewRomanPSMT-67" d="M 966 1044 
Q 703 1172 562 1401 
Q 422 1631 422 1909 
Q 422 2334 742 2640 
Q 1063 2947 1563 2947 
Q 1972 2947 2272 2747 
L 2878 2747 
Q 3013 2747 3034 2739 
Q 3056 2731 3066 2713 
Q 3084 2684 3084 2613 
Q 3084 2531 3069 2500 
Q 3059 2484 3036 2475 
Q 3013 2466 2878 2466 
L 2506 2466 
Q 2681 2241 2681 1891 
Q 2681 1491 2375 1206 
Q 2069 922 1553 922 
Q 1341 922 1119 984 
Q 981 866 932 777 
Q 884 688 884 625 
Q 884 572 936 522 
Q 988 472 1138 450 
Q 1225 438 1575 428 
Q 2219 413 2409 384 
Q 2700 344 2873 169 
Q 3047 -6 3047 -263 
Q 3047 -616 2716 -925 
Q 2228 -1381 1444 -1381 
Q 841 -1381 425 -1109 
Q 191 -953 191 -784 
Q 191 -709 225 -634 
Q 278 -519 444 -313 
Q 466 -284 763 25 
Q 600 122 533 198 
Q 466 275 466 372 
Q 466 481 555 628 
Q 644 775 966 1044 
z
M 1509 2797 
Q 1278 2797 1122 2612 
Q 966 2428 966 2047 
Q 966 1553 1178 1281 
Q 1341 1075 1591 1075 
Q 1828 1075 1981 1253 
Q 2134 1431 2134 1813 
Q 2134 2309 1919 2591 
Q 1759 2797 1509 2797 
z
M 934 0 
Q 788 -159 713 -296 
Q 638 -434 638 -550 
Q 638 -700 819 -813 
Q 1131 -1006 1722 -1006 
Q 2284 -1006 2551 -807 
Q 2819 -609 2819 -384 
Q 2819 -222 2659 -153 
Q 2497 -84 2016 -72 
Q 1313 -53 934 0 
z
" transform="scale(0.015625)"/>
     </defs>
     <use xlink:href="#TimesNewRomanPSMT-42"/>
     <use xlink:href="#TimesNewRomanPSMT-65" x="66.699219"/>
     <use xlink:href="#TimesNewRomanPSMT-69" x="111.083984"/>
     <use xlink:href="#TimesNewRomanPSMT-73" x="138.867188"/>
     <use xlink:href="#TimesNewRomanPSMT-70" x="177.783203"/>
     <use xlink:href="#TimesNewRomanPSMT-69" x="227.783203"/>
     <use xlink:href="#TimesNewRomanPSMT-65" x="255.566406"/>
     <use xlink:href="#TimesNewRomanPSMT-6c" x="299.951172"/>
     <use xlink:href="#TimesNewRomanPSMT-20" x="327.734375"/>
     <use xlink:href="#TimesNewRomanPSMT-4c" x="352.734375"/>
     <use xlink:href="#TimesNewRomanPSMT-61" x="413.818359"/>
     <use xlink:href="#TimesNewRomanPSMT-73" x="458.203125"/>
     <use xlink:href="#TimesNewRomanPSMT-74" x="497.119141"/>
     <use xlink:href="#TimesNewRomanPSMT-70" x="524.902344"/>
     <use xlink:href="#TimesNewRomanPSMT-72" x="574.902344"/>
     <use xlink:href="#TimesNewRomanPSMT-6f" x="608.203125"/>
     <use xlink:href="#TimesNewRomanPSMT-67" x="658.203125"/>
     <use xlink:href="#TimesNewRomanPSMT-6e" x="708.203125"/>
     <use xlink:href="#TimesNewRomanPSMT-6f" x="758.203125"/>
     <use xlink:href="#TimesNewRomanPSMT-73" x="808.203125"/>
     <use xlink:href="#TimesNewRomanPSMT-65" x="847.119141"/>
     <use xlink:href="#TimesNewRomanPSMT-20" x="891.503906"/>
     <use xlink:href="#TimesNewRomanPSMT-31" x="916.503906"/>
    </g>
   </g>
  </g>
  <g id="axes_2">
   <g id="patch_7">
    <path d="M 552.109091 320.4 
L 907.2 320.4 
L 907.2 43.2 
L 552.109091 43.2 
z
" style="fill: #eaeaf2"/>
   </g>
   <g id="matplotlib.axis_3">
    <g id="xtick_7">
     <g id="line2d_14">
      <path d="M 564.851588 320.4 
L 564.851588 43.2 
" clip-path="url(#p0810ca0021)" style="fill: none; stroke: #ffffff; stroke-linecap: round"/>
     </g>
     <g id="text_16">
      <!-- 0 -->
      <g style="fill: #262626" transform="translate(561.551588 339.06575) scale(0.132 -0.132)">
       <use xlink:href="#TimesNewRomanPSMT-30"/>
      </g>
     </g>
    </g>
    <g id="xtick_8">
     <g id="line2d_15">
      <path d="M 632.81157 320.4 
L 632.81157 43.2 
" clip-path="url(#p0810ca0021)" style="fill: none; stroke: #ffffff; stroke-linecap: round"/>
     </g>
     <g id="text_17">
      <!-- 20 -->
      <g style="fill: #262626" transform="translate(626.21157 339.06575) scale(0.132 -0.132)">
       <use xlink:href="#TimesNewRomanPSMT-32"/>
       <use xlink:href="#TimesNewRomanPSMT-30" x="50"/>
      </g>
     </g>
    </g>
    <g id="xtick_9">
     <g id="line2d_16">
      <path d="M 700.771553 320.4 
L 700.771553 43.2 
" clip-path="url(#p0810ca0021)" style="fill: none; stroke: #ffffff; stroke-linecap: round"/>
     </g>
     <g id="text_18">
      <!-- 40 -->
      <g style="fill: #262626" transform="translate(694.171553 339.06575) scale(0.132 -0.132)">
       <use xlink:href="#TimesNewRomanPSMT-34"/>
       <use xlink:href="#TimesNewRomanPSMT-30" x="50"/>
      </g>
     </g>
    </g>
    <g id="xtick_10">
     <g id="line2d_17">
      <path d="M 768.731535 320.4 
L 768.731535 43.2 
" clip-path="url(#p0810ca0021)" style="fill: none; stroke: #ffffff; stroke-linecap: round"/>
     </g>
     <g id="text_19">
      <!-- 60 -->
      <g style="fill: #262626" transform="translate(762.131535 339.06575) scale(0.132 -0.132)">
       <use xlink:href="#TimesNewRomanPSMT-36"/>
       <use xlink:href="#TimesNewRomanPSMT-30" x="50"/>
      </g>
     </g>
    </g>
    <g id="xtick_11">
     <g id="line2d_18">
      <path d="M 836.691518 320.4 
L 836.691518 43.2 
" clip-path="url(#p0810ca0021)" style="fill: none; stroke: #ffffff; stroke-linecap: round"/>
     </g>
     <g id="text_20">
      <!-- 80 -->
      <g style="fill: #262626" transform="translate(830.091518 339.06575) scale(0.132 -0.132)">
       <use xlink:href="#TimesNewRomanPSMT-38"/>
       <use xlink:href="#TimesNewRomanPSMT-30" x="50"/>
      </g>
     </g>
    </g>
    <g id="xtick_12">
     <g id="line2d_19">
      <path d="M 904.651501 320.4 
L 904.651501 43.2 
" clip-path="url(#p0810ca0021)" style="fill: none; stroke: #ffffff; stroke-linecap: round"/>
     </g>
     <g id="text_21">
      <!-- 100 -->
      <g style="fill: #262626" transform="translate(894.751501 339.06575) scale(0.132 -0.132)">
       <use xlink:href="#TimesNewRomanPSMT-31"/>
       <use xlink:href="#TimesNewRomanPSMT-30" x="50"/>
       <use xlink:href="#TimesNewRomanPSMT-30" x="100"/>
      </g>
     </g>
    </g>
    <g id="text_22">
     <!-- Zeit im 15 min Intervall -->
     <g style="fill: #262626" transform="translate(672.002045 354.221812) scale(0.12 -0.12)">
      <use xlink:href="#TimesNewRomanPSMT-5a"/>
      <use xlink:href="#TimesNewRomanPSMT-65" x="61.083984"/>
      <use xlink:href="#TimesNewRomanPSMT-69" x="105.46875"/>
      <use xlink:href="#TimesNewRomanPSMT-74" x="133.251953"/>
      <use xlink:href="#TimesNewRomanPSMT-20" x="161.035156"/>
      <use xlink:href="#TimesNewRomanPSMT-69" x="186.035156"/>
      <use xlink:href="#TimesNewRomanPSMT-6d" x="213.818359"/>
      <use xlink:href="#TimesNewRomanPSMT-20" x="291.601562"/>
      <use xlink:href="#TimesNewRomanPSMT-31" x="316.601562"/>
      <use xlink:href="#TimesNewRomanPSMT-35" x="366.601562"/>
      <use xlink:href="#TimesNewRomanPSMT-20" x="416.601562"/>
      <use xlink:href="#TimesNewRomanPSMT-6d" x="441.601562"/>
      <use xlink:href="#TimesNewRomanPSMT-69" x="519.384766"/>
      <use xlink:href="#TimesNewRomanPSMT-6e" x="547.167969"/>
      <use xlink:href="#TimesNewRomanPSMT-20" x="597.167969"/>
      <use xlink:href="#TimesNewRomanPSMT-49" x="622.167969"/>
      <use xlink:href="#TimesNewRomanPSMT-6e" x="655.46875"/>
      <use xlink:href="#TimesNewRomanPSMT-74" x="705.46875"/>
      <use xlink:href="#TimesNewRomanPSMT-65" x="733.251953"/>
      <use xlink:href="#TimesNewRomanPSMT-72" x="777.636719"/>
      <use xlink:href="#TimesNewRomanPSMT-76" x="810.9375"/>
      <use xlink:href="#TimesNewRomanPSMT-61" x="860.9375"/>
      <use xlink:href="#TimesNewRomanPSMT-6c" x="905.322266"/>
      <use xlink:href="#TimesNewRomanPSMT-6c" x="933.105469"/>
     </g>
    </g>
   </g>
   <g id="matplotlib.axis_4">
    <g id="ytick_7">
     <g id="line2d_20">
      <path d="M 552.109091 320.4 
L 907.2 320.4 
" clip-path="url(#p0810ca0021)" style="fill: none; stroke: #ffffff; stroke-linecap: round"/>
     </g>
     <g id="text_23">
      <!-- 0.6 -->
      <g style="fill: #262626" transform="translate(526.109091 324.982875) scale(0.132 -0.132)">
       <use xlink:href="#TimesNewRomanPSMT-30"/>
       <use xlink:href="#TimesNewRomanPSMT-2e" x="50"/>
       <use xlink:href="#TimesNewRomanPSMT-36" x="75"/>
      </g>
     </g>
    </g>
    <g id="ytick_8">
     <g id="line2d_21">
      <path d="M 552.109091 264.96 
L 907.2 264.96 
" clip-path="url(#p0810ca0021)" style="fill: none; stroke: #ffffff; stroke-linecap: round"/>
     </g>
     <g id="text_24">
      <!-- 0.7 -->
      <g style="fill: #262626" transform="translate(526.109091 269.542875) scale(0.132 -0.132)">
       <use xlink:href="#TimesNewRomanPSMT-30"/>
       <use xlink:href="#TimesNewRomanPSMT-2e" x="50"/>
       <use xlink:href="#TimesNewRomanPSMT-37" x="75"/>
      </g>
     </g>
    </g>
    <g id="ytick_9">
     <g id="line2d_22">
      <path d="M 552.109091 209.52 
L 907.2 209.52 
" clip-path="url(#p0810ca0021)" style="fill: none; stroke: #ffffff; stroke-linecap: round"/>
     </g>
     <g id="text_25">
      <!-- 0.8 -->
      <g style="fill: #262626" transform="translate(526.109091 214.102875) scale(0.132 -0.132)">
       <use xlink:href="#TimesNewRomanPSMT-30"/>
       <use xlink:href="#TimesNewRomanPSMT-2e" x="50"/>
       <use xlink:href="#TimesNewRomanPSMT-38" x="75"/>
      </g>
     </g>
    </g>
    <g id="ytick_10">
     <g id="line2d_23">
      <path d="M 552.109091 154.08 
L 907.2 154.08 
" clip-path="url(#p0810ca0021)" style="fill: none; stroke: #ffffff; stroke-linecap: round"/>
     </g>
     <g id="text_26">
      <!-- 0.9 -->
      <g style="fill: #262626" transform="translate(526.109091 158.662875) scale(0.132 -0.132)">
       <use xlink:href="#TimesNewRomanPSMT-30"/>
       <use xlink:href="#TimesNewRomanPSMT-2e" x="50"/>
       <use xlink:href="#TimesNewRomanPSMT-39" x="75"/>
      </g>
     </g>
    </g>
    <g id="ytick_11">
     <g id="line2d_24">
      <path d="M 552.109091 98.64 
L 907.2 98.64 
" clip-path="url(#p0810ca0021)" style="fill: none; stroke: #ffffff; stroke-linecap: round"/>
     </g>
     <g id="text_27">
      <!-- 1.0 -->
      <g style="fill: #262626" transform="translate(526.109091 103.222875) scale(0.132 -0.132)">
       <use xlink:href="#TimesNewRomanPSMT-31"/>
       <use xlink:href="#TimesNewRomanPSMT-2e" x="50"/>
       <use xlink:href="#TimesNewRomanPSMT-30" x="75"/>
      </g>
     </g>
    </g>
    <g id="ytick_12">
     <g id="line2d_25">
      <path d="M 552.109091 43.2 
L 907.2 43.2 
" clip-path="url(#p0810ca0021)" style="fill: none; stroke: #ffffff; stroke-linecap: round"/>
     </g>
     <g id="text_28">
      <!-- 1.1 -->
      <g style="fill: #262626" transform="translate(526.109091 47.782875) scale(0.132 -0.132)">
       <use xlink:href="#TimesNewRomanPSMT-31"/>
       <use xlink:href="#TimesNewRomanPSMT-2e" x="50"/>
       <use xlink:href="#TimesNewRomanPSMT-31" x="75"/>
      </g>
     </g>
    </g>
    <g id="text_29">
     <!-- Normierte Elektrische Last -->
     <g style="fill: #262626" transform="translate(519.542216 246.775312) rotate(-90) scale(0.12 -0.12)">
      <use xlink:href="#TimesNewRomanPSMT-4e"/>
      <use xlink:href="#TimesNewRomanPSMT-6f" x="72.216797"/>
      <use xlink:href="#TimesNewRomanPSMT-72" x="122.216797"/>
      <use xlink:href="#TimesNewRomanPSMT-6d" x="155.517578"/>
      <use xlink:href="#TimesNewRomanPSMT-69" x="233.300781"/>
      <use xlink:href="#TimesNewRomanPSMT-65" x="261.083984"/>
      <use xlink:href="#TimesNewRomanPSMT-72" x="305.46875"/>
      <use xlink:href="#TimesNewRomanPSMT-74" x="338.769531"/>
      <use xlink:href="#TimesNewRomanPSMT-65" x="366.552734"/>
      <use xlink:href="#TimesNewRomanPSMT-20" x="410.9375"/>
      <use xlink:href="#TimesNewRomanPSMT-45" x="435.9375"/>
      <use xlink:href="#TimesNewRomanPSMT-6c" x="497.021484"/>
      <use xlink:href="#TimesNewRomanPSMT-65" x="524.804688"/>
      <use xlink:href="#TimesNewRomanPSMT-6b" x="569.189453"/>
      <use xlink:href="#TimesNewRomanPSMT-74" x="619.189453"/>
      <use xlink:href="#TimesNewRomanPSMT-72" x="646.972656"/>
      <use xlink:href="#TimesNewRomanPSMT-69" x="680.273438"/>
      <use xlink:href="#TimesNewRomanPSMT-73" x="708.056641"/>
      <use xlink:href="#TimesNewRomanPSMT-63" x="746.972656"/>
      <use xlink:href="#TimesNewRomanPSMT-68" x="791.357422"/>
      <use xlink:href="#TimesNewRomanPSMT-65" x="841.357422"/>
      <use xlink:href="#TimesNewRomanPSMT-20" x="885.742188"/>
      <use xlink:href="#TimesNewRomanPSMT-4c" x="910.742188"/>
      <use xlink:href="#TimesNewRomanPSMT-61" x="971.826172"/>
      <use xlink:href="#TimesNewRomanPSMT-73" x="1016.210938"/>
      <use xlink:href="#TimesNewRomanPSMT-74" x="1055.126953"/>
     </g>
    </g>
   </g>
   <g id="PolyCollection_2">
    <defs>
     <path id="m92df5d3bae" d="M 568.249587 -114.634128 
L 568.249587 -80.289849 
L 571.647586 -78.586244 
L 575.045585 -72.087816 
L 578.443584 -71.465037 
L 581.841583 -69.020106 
L 585.239582 -68.334093 
L 588.637582 -69.245952 
L 592.035581 -67.60571 
L 595.43358 -66.022572 
L 598.831579 -65.364027 
L 602.229578 -63.926236 
L 605.627577 -66.073024 
L 609.025576 -70.237658 
L 612.423575 -69.986554 
L 615.821575 -74.540596 
L 619.219574 -79.552822 
L 622.617573 -87.154697 
L 626.015572 -91.507859 
L 629.413571 -99.161711 
L 632.81157 -109.663398 
L 636.209569 -127.57964 
L 639.607569 -145.749385 
L 643.005568 -162.790845 
L 646.403567 -175.042093 
L 649.801566 -190.011872 
L 653.199565 -198.555996 
L 656.597564 -207.457264 
L 659.995563 -215.56122 
L 663.393562 -220.981554 
L 666.791562 -224.208338 
L 670.189561 -225.105975 
L 673.58756 -227.014654 
L 676.985559 -225.610142 
L 680.383558 -227.958386 
L 683.781557 -232.191758 
L 687.179556 -233.421229 
L 690.577555 -233.259215 
L 693.975555 -236.44769 
L 697.373554 -240.40804 
L 700.771553 -240.839107 
L 704.169552 -237.750981 
L 707.567551 -237.562967 
L 710.96555 -242.185234 
L 714.363549 -244.891214 
L 717.761548 -243.150643 
L 721.159548 -243.749252 
L 724.557547 -241.594459 
L 727.955546 -237.576946 
L 731.353545 -234.364073 
L 734.751544 -231.290631 
L 738.149543 -228.20998 
L 741.547542 -225.677355 
L 744.945542 -228.281647 
L 748.343541 -222.212908 
L 751.74154 -219.181359 
L 755.139539 -216.741746 
L 758.537538 -216.720304 
L 761.935537 -214.934084 
L 765.333536 -213.308751 
L 768.731535 -210.584372 
L 772.129535 -206.448238 
L 775.527534 -203.716413 
L 778.925533 -207.002699 
L 782.323532 -214.098954 
L 785.721531 -220.314853 
L 789.11953 -227.294353 
L 792.517529 -231.940644 
L 795.915528 -233.079164 
L 799.313528 -229.712402 
L 802.711527 -222.48485 
L 806.109526 -224.188864 
L 809.507525 -220.140696 
L 812.905524 -216.409279 
L 816.303523 -210.155526 
L 819.701522 -202.31578 
L 823.099522 -199.866296 
L 826.497521 -191.319245 
L 829.89552 -184.053857 
L 833.293519 -178.393843 
L 836.691518 -171.91103 
L 840.089517 -163.810239 
L 843.487516 -156.965335 
L 846.885515 -151.274137 
L 850.283515 -146.639878 
L 853.681514 -146.088982 
L 857.079513 -140.267357 
L 860.477512 -132.291973 
L 863.875511 -124.057717 
L 867.27351 -115.366783 
L 870.671509 -107.949685 
L 874.069508 -98.512649 
L 877.467508 -93.396666 
L 880.865507 -89.672204 
L 884.263506 -84.405128 
L 887.661505 -77.30955 
L 891.059504 -68.897176 
L 891.059504 -102.577986 
L 891.059504 -102.577986 
L 887.661505 -109.879471 
L 884.263506 -117.42094 
L 880.865507 -123.479745 
L 877.467508 -126.685248 
L 874.069508 -133.109093 
L 870.671509 -140.166539 
L 867.27351 -149.041924 
L 863.875511 -155.982016 
L 860.477512 -166.524134 
L 857.079513 -174.516647 
L 853.681514 -178.747546 
L 850.283515 -180.125614 
L 846.885515 -185.045274 
L 843.487516 -190.097954 
L 840.089517 -196.733418 
L 836.691518 -205.622362 
L 833.293519 -211.58166 
L 829.89552 -216.96121 
L 826.497521 -224.052444 
L 823.099522 -233.845066 
L 819.701522 -235.62632 
L 816.303523 -243.373818 
L 812.905524 -250.608529 
L 809.507525 -253.618793 
L 806.109526 -256.701861 
L 802.711527 -256.73482 
L 799.313528 -262.703972 
L 795.915528 -265.979434 
L 792.517529 -264.602093 
L 789.11953 -259.488349 
L 785.721531 -253.482573 
L 782.323532 -246.998724 
L 778.925533 -241.475189 
L 775.527534 -236.575225 
L 772.129535 -239.66421 
L 768.731535 -244.403444 
L 765.333536 -246.512953 
L 761.935537 -247.740479 
L 758.537538 -248.980257 
L 755.139539 -249.554707 
L 751.74154 -251.926478 
L 748.343541 -256.133407 
L 744.945542 -261.005001 
L 741.547542 -259.875596 
L 738.149543 -261.269395 
L 734.751544 -263.763517 
L 731.353545 -267.343972 
L 727.955546 -270.72006 
L 724.557547 -273.944711 
L 721.159548 -277.57364 
L 717.761548 -275.315525 
L 714.363549 -277.493907 
L 710.96555 -274.584735 
L 707.567551 -270.783018 
L 704.169552 -271.842512 
L 700.771553 -274.91511 
L 697.373554 -273.094113 
L 693.975555 -268.847684 
L 690.577555 -266.795826 
L 687.179556 -267.045277 
L 683.781557 -264.592704 
L 680.383558 -261.46877 
L 676.985559 -259.712388 
L 673.58756 -260.607958 
L 670.189561 -257.714833 
L 666.791562 -257.383379 
L 663.393562 -254.879912 
L 659.995563 -249.072599 
L 656.597564 -241.22871 
L 653.199565 -230.721253 
L 649.801566 -222.796801 
L 646.403567 -208.18167 
L 643.005568 -196.809398 
L 639.607569 -178.496411 
L 636.209569 -159.68261 
L 632.81157 -142.654772 
L 629.413571 -132.857008 
L 626.015572 -124.580646 
L 622.617573 -119.981557 
L 619.219574 -112.877452 
L 615.821575 -108.271008 
L 612.423575 -102.486941 
L 609.025576 -103.963391 
L 605.627577 -98.27444 
L 602.229578 -96.192092 
L 598.831579 -97.704877 
L 595.43358 -98.730044 
L 592.035581 -101.358507 
L 588.637582 -101.700773 
L 585.239582 -102.183005 
L 581.841583 -102.352927 
L 578.443584 -103.583039 
L 575.045585 -106.541545 
L 571.647586 -112.123105 
L 568.249587 -114.634128 
z
" style="stroke: #ff0000; stroke-opacity: 0.2"/>
    </defs>
    <g clip-path="url(#p0810ca0021)">
     <use xlink:href="#m92df5d3bae" x="0" y="360" style="fill: #ff0000; fill-opacity: 0.2; stroke: #ff0000; stroke-opacity: 0.2"/>
    </g>
   </g>
   <g id="line2d_26">
    <path d="M 568.249587 262.538012 
L 571.647586 264.645325 
L 575.045585 270.68532 
L 578.443584 272.475962 
L 581.841583 274.313484 
L 585.239582 274.741451 
L 588.637582 274.526638 
L 592.035581 275.517892 
L 595.43358 277.623692 
L 598.831579 278.465548 
L 602.229578 279.940836 
L 605.627577 277.826268 
L 609.025576 272.899475 
L 612.423575 273.763253 
L 615.821575 268.594198 
L 619.219574 263.784863 
L 622.617573 256.431873 
L 626.015572 251.955748 
L 629.413571 243.990641 
L 632.81157 233.840915 
L 636.209569 216.368875 
L 639.607569 197.877102 
L 643.005568 180.199878 
L 646.403567 168.388119 
L 649.801566 153.595664 
L 653.199565 145.361375 
L 656.597564 135.657013 
L 659.995563 127.68309 
L 663.393562 122.069267 
L 666.791562 119.204141 
L 670.189561 118.589596 
L 673.58756 116.188694 
L 676.985559 117.338735 
L 680.383558 115.286422 
L 683.781557 111.607769 
L 687.179556 109.766747 
L 690.577555 109.97248 
L 693.975555 107.352313 
L 697.373554 103.248923 
L 700.771553 102.122892 
L 704.169552 105.203253 
L 707.567551 105.827008 
L 710.96555 101.615016 
L 714.363549 98.807439 
L 717.761548 100.766916 
L 721.159548 99.338554 
L 724.557547 102.230415 
L 727.955546 105.851497 
L 731.353545 109.145977 
L 734.751544 112.472926 
L 738.149543 115.260313 
L 741.547542 117.223524 
L 744.945542 115.356676 
L 748.343541 120.826843 
L 751.74154 124.446081 
L 755.139539 126.851774 
L 758.537538 127.149719 
L 761.935537 128.662719 
L 765.333536 130.089148 
L 768.731535 132.506092 
L 772.129535 136.943776 
L 775.527534 139.854181 
L 778.925533 135.761056 
L 782.323532 129.451161 
L 785.721531 123.101287 
L 789.11953 116.608649 
L 792.517529 111.728632 
L 795.915528 110.470701 
L 799.313528 113.791813 
L 802.711527 120.390165 
L 806.109526 119.554637 
L 809.507525 123.120256 
L 812.905524 126.491096 
L 816.303523 133.235328 
L 819.701522 141.02895 
L 823.099522 143.144319 
L 826.497521 152.314156 
L 829.89552 159.492467 
L 833.293519 165.012249 
L 836.691518 171.233304 
L 840.089517 179.728172 
L 843.487516 186.468355 
L 846.885515 191.840295 
L 850.283515 196.617254 
L 853.681514 197.581736 
L 857.079513 202.607998 
L 860.477512 210.591947 
L 863.875511 219.980134 
L 867.27351 227.795646 
L 870.671509 235.941888 
L 874.069508 244.189129 
L 877.467508 249.959043 
L 880.865507 253.424025 
L 884.263506 259.086966 
L 887.661505 266.405489 
L 891.059504 274.262419 
" clip-path="url(#p0810ca0021)" style="fill: none; stroke: #ff0000; stroke-width: 1.5; stroke-linecap: round"/>
   </g>
   <g id="patch_8">
    <path d="M 552.109091 320.4 
L 552.109091 43.2 
" style="fill: none; stroke: #ffffff; stroke-width: 1.25; stroke-linejoin: miter; stroke-linecap: square"/>
   </g>
   <g id="patch_9">
    <path d="M 907.2 320.4 
L 907.2 43.2 
" style="fill: none; stroke: #ffffff; stroke-width: 1.25; stroke-linejoin: miter; stroke-linecap: square"/>
   </g>
   <g id="patch_10">
    <path d="M 552.109091 320.4 
L 907.2 320.4 
" style="fill: none; stroke: #ffffff; stroke-width: 1.25; stroke-linejoin: miter; stroke-linecap: square"/>
   </g>
   <g id="patch_11">
    <path d="M 552.109091 43.2 
L 907.2 43.2 
" style="fill: none; stroke: #ffffff; stroke-width: 1.25; stroke-linejoin: miter; stroke-linecap: square"/>
   </g>
   <g id="text_30">
    <!-- Beispiel Lastprognose 2 -->
    <g style="fill: #262626" transform="translate(660.064295 37.2) scale(0.144 -0.144)">
     <use xlink:href="#TimesNewRomanPSMT-42"/>
     <use xlink:href="#TimesNewRomanPSMT-65" x="66.699219"/>
     <use xlink:href="#TimesNewRomanPSMT-69" x="111.083984"/>
     <use xlink:href="#TimesNewRomanPSMT-73" x="138.867188"/>
     <use xlink:href="#TimesNewRomanPSMT-70" x="177.783203"/>
     <use xlink:href="#TimesNewRomanPSMT-69" x="227.783203"/>
     <use xlink:href="#TimesNewRomanPSMT-65" x="255.566406"/>
     <use xlink:href="#TimesNewRomanPSMT-6c" x="299.951172"/>
     <use xlink:href="#TimesNewRomanPSMT-20" x="327.734375"/>
     <use xlink:href="#TimesNewRomanPSMT-4c" x="352.734375"/>
     <use xlink:href="#TimesNewRomanPSMT-61" x="413.818359"/>
     <use xlink:href="#TimesNewRomanPSMT-73" x="458.203125"/>
     <use xlink:href="#TimesNewRomanPSMT-74" x="497.119141"/>
     <use xlink:href="#TimesNewRomanPSMT-70" x="524.902344"/>
     <use xlink:href="#TimesNewRomanPSMT-72" x="574.902344"/>
     <use xlink:href="#TimesNewRomanPSMT-6f" x="608.203125"/>
     <use xlink:href="#TimesNewRomanPSMT-67" x="658.203125"/>
     <use xlink:href="#TimesNewRomanPSMT-6e" x="708.203125"/>
     <use xlink:href="#TimesNewRomanPSMT-6f" x="758.203125"/>
     <use xlink:href="#TimesNewRomanPSMT-73" x="808.203125"/>
     <use xlink:href="#TimesNewRomanPSMT-65" x="847.119141"/>
     <use xlink:href="#TimesNewRomanPSMT-20" x="891.503906"/>
     <use xlink:href="#TimesNewRomanPSMT-32" x="916.503906"/>
    </g>
   </g>
  </g>
 </g>
 <defs>
  <clipPath id="p8e9f5e5f84">
   <rect x="126" y="43.2" width="355.090909" height="277.2"/>
  </clipPath>
  <clipPath id="p0810ca0021">
   <rect x="552.109091" y="43.2" width="355.090909" height="277.2"/>
  </clipPath>
 </defs>
</svg>
