<svg width="1778" height="1171" xmlns="http://www.w3.org/2000/svg" xmlns:xlink="http://www.w3.org/1999/xlink" xml:space="preserve" overflow="hidden"><g transform="translate(-546 -595)"><rect x="550.5" y="1077.5" width="957" height="356" stroke="#000000" stroke-width="4.58333" stroke-miterlimit="8" fill="#FFFFFF"/><text font-family="Wingdings,Wingdings_MSFontService,sans-serif" font-weight="400" font-size="46" transform="matrix(1 0 0 1 583.118 1161)"></text><text font-family="Times New Roman,Times New Roman_MSFontService,sans-serif" font-weight="400" font-size="46" transform="matrix(1 0 0 1 644.993 1161)">SLP &amp; ARIMA</text><text font-family="Wingdings,Wingdings_MSFontService,sans-serif" font-weight="400" font-size="46" transform="matrix(1 0 0 1 583.118 1216)"></text><text font-family="Times New Roman,Times New Roman_MSFontService,sans-serif" font-weight="400" font-size="46" transform="matrix(1 0 0 1 644.993 1216)">Determine Forecast Error PDF</text><text font-family="Wingdings,Wingdings_MSFontService,sans-serif" font-weight="400" font-size="46" transform="matrix(1 0 0 1 583.118 1271)"></text><text font-family="Times New Roman,Times New Roman_MSFontService,sans-serif" font-weight="400" font-size="46" transform="matrix(1 0 0 1 644.993 1271)">Calculate Nodal Load Forecast Error PDF</text><text font-family="Wingdings,Wingdings_MSFontService,sans-serif" font-weight="400" font-size="46" transform="matrix(1 0 0 1 583.118 1326)"></text><text font-family="Times New Roman,Times New Roman_MSFontService,sans-serif" font-weight="400" font-size="46" transform="matrix(1 0 0 1 644.993 1326)">Monte Carlo </text><text font-family="Times New Roman,Times New Roman_MSFontService,sans-serif" font-weight="400" font-size="46" transform="matrix(1 0 0 1 889.628 1326)">Simulation</text><text font-family="Times New Roman,Times New Roman_MSFontService,sans-serif" font-weight="400" font-size="46" transform="matrix(1 0 0 1 1101.61 1326)">of Power </text><text font-family="Times New Roman,Times New Roman_MSFontService,sans-serif" font-weight="400" font-size="46" transform="matrix(1 0 0 1 1280.36 1326)">Flows </text><text font-family="Times New Roman,Times New Roman_MSFontService,sans-serif" font-weight="400" font-size="46" transform="matrix(1 0 0 1 1403.53 1326)">and </text><text font-family="Times New Roman,Times New Roman_MSFontService,sans-serif" font-weight="400" font-size="46" transform="matrix(1 0 0 1 644.993 1381)">Voltage Levels</text><rect x="600" y="595" width="910" height="100" fill="#FFFFFF"/><text font-family="Times New Roman,Times New Roman_MSFontService,sans-serif" font-weight="700" font-size="55" transform="matrix(1 0 0 1 729.61 665)">1. Distribution Grid System</text><rect x="551.5" y="691.5" width="955" height="249" stroke="#000000" stroke-width="4.58333" stroke-miterlimit="8" fill="#FFFFFF"/><text font-family="Wingdings,Wingdings_MSFontService,sans-serif" font-weight="400" font-size="46" transform="matrix(1 0 0 1 584.039 750)"></text><text font-family="Times New Roman,Times New Roman_MSFontService,sans-serif" font-weight="400" font-size="46" transform="matrix(1 0 0 1 645.914 750)">Grid Setup</text><text font-family="Wingdings,Wingdings_MSFontService,sans-serif" font-weight="400" font-size="46" transform="matrix(1 0 0 1 584.039 805)"></text><text font-family="Times New Roman,Times New Roman_MSFontService,sans-serif" font-weight="400" font-size="46" transform="matrix(1 0 0 1 645.914 805)">Synthetic Nodal Load</text><text font-family="Wingdings,Wingdings_MSFontService,sans-serif" font-weight="400" font-size="46" transform="matrix(1 0 0 1 584.039 860)"></text><text font-family="Times New Roman,Times New Roman_MSFontService,sans-serif" font-weight="400" font-size="46" transform="matrix(1 0 0 1 645.914 860)">Real </text><text font-family="Times New Roman,Times New Roman_MSFontService,sans-serif" font-weight="400" font-size="46" transform="matrix(1 0 0 1 741.591 860)">Power </text><text font-family="Times New Roman,Times New Roman_MSFontService,sans-serif" font-weight="400" font-size="46" transform="matrix(1 0 0 1 870.498 860)">Flows &amp; Voltage Levels</text><text font-family="Wingdings,Wingdings_MSFontService,sans-serif" font-weight="400" font-size="46" transform="matrix(1 0 0 1 584.039 915)"></text><text font-family="Times New Roman,Times New Roman_MSFontService,sans-serif" font-weight="400" font-size="46" transform="matrix(1 0 0 1 645.914 915)">Sensitivity Factors (PTDF &amp; </text><text font-family="Times New Roman,Times New Roman_MSFontService,sans-serif" font-weight="400" font-size="46" transform="matrix(1 0 0 1 1185.03 915)">VTDF</text><text font-family="Times New Roman,Times New Roman_MSFontService,sans-serif" font-weight="400" font-size="46" transform="matrix(1 0 0 1 1304.77 915)">)</text><text font-family="Times New Roman,Times New Roman_MSFontService,sans-serif" font-weight="700" font-size="55" transform="matrix(1 0 0 1 804.077 1048)">2. Load Forecasting</text><text font-family="Times New Roman,Times New Roman_MSFontService,sans-serif" font-weight="700" font-size="55" transform="matrix(1 0 0 1 723.779 1547)">3. Congestion Management</text><rect x="558.5" y="1574.5" width="956" height="182" stroke="#000000" stroke-width="4.58333" stroke-miterlimit="8" fill="#FFFFFF"/><text font-family="Wingdings,Wingdings_MSFontService,sans-serif" font-weight="400" font-size="46" transform="matrix(1 0 0 1 591.054 1654)"></text><text font-family="Times New Roman,Times New Roman_MSFontService,sans-serif" font-weight="400" font-size="46" transform="matrix(1 0 0 1 652.929 1654)">Rolling Horizon Definition</text><text font-family="Wingdings,Wingdings_MSFontService,sans-serif" font-weight="400" font-size="46" transform="matrix(1 0 0 1 591.054 1709)"></text><text font-family="Times New Roman,Times New Roman_MSFontService,sans-serif" font-weight="400" font-size="46" transform="matrix(1 0 0 1 652.929 1709)">Congestion Model</text><path d="M1457.16 940 1457.16 1052.1 1446.84 1052.1 1446.84 940ZM1467.47 1046.94 1452 1077.88 1436.53 1046.94Z"/><path d="M1463.16 1432 1463.16 1551.66 1452.84 1551.66 1452.84 1432ZM1473.47 1546.5 1458 1577.44 1442.53 1546.5Z"/><path d="M605.156 940 605.156 1051.94 594.844 1051.94 594.844 940ZM615.469 1046.78 600 1077.72 584.531 1046.78Z"/><path d="M600.156 1432 600.157 1551.22 589.844 1551.22 589.844 1432ZM610.469 1546.06 595 1577 579.532 1546.06Z"/><path d="M1502.5 598.5C1526.8 598.5 1546.5 608.761 1546.5 621.419L1546.5 746.081C1546.5 758.739 1566.2 769 1590.5 769 1566.2 769 1546.5 779.261 1546.5 791.919L1546.5 916.581C1546.5 929.239 1526.8 939.5 1502.5 939.5" stroke="#000000" stroke-width="4.58333" stroke-miterlimit="8" fill="none" fill-rule="evenodd"/><text font-family="Times New Roman,Times New Roman_MSFontService,sans-serif" font-weight="700" font-size="55" transform="matrix(1 0 0 1 1623.07 785)">Power Flow Calculation</text><path d="M1504.5 1013.5C1528.8 1013.5 1548.5 1023.76 1548.5 1036.42L1548.5 1200.08C1548.5 1212.74 1568.2 1223 1592.5 1223 1568.2 1223 1548.5 1233.26 1548.5 1245.92L1548.5 1409.58C1548.5 1422.24 1528.8 1432.5 1504.5 1432.5" stroke="#000000" stroke-width="4.58333" stroke-miterlimit="8" fill="none" fill-rule="evenodd"/><text font-family="Times New Roman,Times New Roman_MSFontService,sans-serif" font-weight="700" font-size="55" transform="matrix(1 0 0 1 1613.05 1243)">Uncertainty Implementation</text><path d="M1509.5 1489.5C1533.52 1489.5 1553 1499.64 1553 1512.16L1553 1600.34C1553 1612.86 1572.48 1623 1596.5 1623 1572.48 1623 1553 1633.14 1553 1645.66L1553 1733.84C1553 1746.36 1533.52 1756.5 1509.5 1756.5" stroke="#000000" stroke-width="4.58333" stroke-miterlimit="8" fill="none" fill-rule="evenodd"/><text font-family="Times New Roman,Times New Roman_MSFontService,sans-serif" font-weight="700" font-size="55" transform="matrix(1 0 0 1 1624.98 1641)">Energy System Modeling</text></g></svg>